<?xml version="1.0" encoding="UTF-8"?>
<svg id="Layer_1" xmlns="http://www.w3.org/2000/svg" version="1.1" xmlns:i="http://ns.adobe.com/AdobeIllustrator/10.0/" viewBox="0 0 612 198">
  <!-- Generator: Adobe Illustrator 29.8.3, SVG Export Plug-In . SVG Version: 2.1.1 Build 3)  -->
  <defs>
    <style>
      .st0 {
        fill: #f2edf4;
      }

      .st1 {
        fill: #010101;
      }

      .st2 {
        font-size: 12.14px;
        letter-spacing: .1em;
      }

      .st2, .st3, .st4, .st5, .st6, .st7, .st8, .st9, .st10 {
        isolation: isolate;
      }

      .st2, .st3, .st4, .st8, .st9, .st10 {
        font-family: Computersaysno, 'Computer says no';
      }

      .st11 {
        fill: #fff;
      }

      .st3 {
        font-size: 10.16px;
      }

      .st12 {
        stroke: #6e5418;
        stroke-dasharray: 0 8.19;
        stroke-linecap: round;
        stroke-linejoin: round;
        stroke-width: 2px;
      }

      .st12, .st13 {
        fill: none;
      }

      .st14, .st5, .st7 {
        fill: #9a7b2e;
      }

      .st4 {
        font-size: 9px;
      }

      .st5 {
        font-size: 27.54px;
      }

      .st5, .st7 {
        font-family: AnastasiaScript, AnastasiaScript;
      }

      .st7 {
        font-size: 27.66px;
      }

      .st15 {
        fill: #cfb1d4;
      }

      .st8 {
        font-size: 27.75px;
      }

      .st9 {
        font-size: 14px;
      }

      .st13 {
        stroke: #dcd1e0;
        stroke-miterlimit: 10;
        stroke-width: .5px;
      }

      .st10 {
        font-size: 11.07px;
      }
    </style>
  </defs>
  <path class="st14" d="M91.63,28.13v141.84c-6.59,0-11.92,5.34-11.92,11.92,0,.73.07,1.45.2,2.15h-45.42c-9.37,0-16.96-7.59-16.96-16.95V33.16c0-9.36,7.59-16.95,16.96-16.95h45.22c0,6.59,5.33,11.92,11.92,11.92Z"/>
  <path class="st11" d="M594.92,33.16v133.93c0,9.36-7.59,16.95-16.95,16.95h-115.52c.13-.7.2-1.42.2-2.15,0-6.58-5.34-11.92-11.93-11.92s-11.92,5.34-11.92,11.92c0,.73.07,1.45.2,2.15H103.35c.13-.7.2-1.42.2-2.15,0-6.58-5.34-11.92-11.92-11.92V28.13c6.58,0,11.92-5.33,11.92-11.92h335.25c0,6.59,5.34,11.92,11.92,11.92s11.93-5.33,11.93-11.92h115.32c9.36,0,16.95,7.59,16.95,16.95Z"/>
  <line class="st12" x1="91.63" y1="28.13" x2="91.63" y2="169.97"/>
  <line class="st12" x1="451.36" y1="29.43" x2="451.36" y2="169.99"/>
  <path class="st13" d="M471.48,48.6h108.24v108.24h-108.24V48.6h0Z"/>
  <g id="Qr_Code">
    <g>
      <polygon class="st1" points="523.96 120.76 530.52 120.76 530.52 117.48 517.4 117.48 517.4 120.76 514.12 120.76 514.12 117.48 510.84 117.48 510.84 124.04 523.96 124.04 523.96 120.76"/>
      <rect class="st1" x="517.4" y="114.2" width="3.28" height="3.28"/>
      <rect class="st1" x="510.84" y="130.6" width="3.28" height="3.28"/>
      <rect class="st1" x="514.12" y="84.68" width="3.28" height="3.28"/>
      <rect class="st1" x="537.08" y="117.48" width="3.28" height="6.56"/>
      <rect class="st1" x="543.64" y="120.76" width="3.28" height="3.28"/>
      <rect class="st1" x="550.2" y="117.48" width="3.28" height="6.56"/>
      <rect class="st1" x="540.36" y="130.6" width="6.56" height="3.28"/>
      <polygon class="st1" points="553.48 124.04 550.2 124.04 550.2 127.32 540.36 127.32 540.36 124.04 530.52 124.04 530.52 127.32 527.24 127.32 527.24 124.04 523.96 124.04 523.96 130.6 553.48 130.6 553.48 124.04"/>
      <rect class="st1" x="530.52" y="104.36" width="13.12" height="3.28"/>
      <rect class="st1" x="530.52" y="130.6" width="3.28" height="3.28"/>
      <rect class="st1" x="530.52" y="133.88" width="3.28" height="6.56"/>
      <polygon class="st1" points="517.4 127.32 514.12 127.32 514.12 124.04 510.84 124.04 510.84 130.6 520.68 130.6 520.68 124.04 517.4 124.04 517.4 127.32"/>
      <rect class="st1" x="517.4" y="130.6" width="3.28" height="3.28"/>
      <rect class="st1" x="507.56" y="91.24" width="3.28" height="3.28"/>
      <polygon class="st1" points="514.12 94.52 517.4 94.52 517.4 97.8 520.68 97.8 520.68 91.24 514.12 91.24 514.12 94.52"/>
      <rect class="st1" x="504.28" y="94.52" width="3.28" height="3.28"/>
      <rect class="st1" x="501" y="91.24" width="3.28" height="3.28"/>
      <rect class="st1" x="497.72" y="104.36" width="3.28" height="3.28"/>
      <polygon class="st1" points="504.28 101.08 504.28 97.8 501 97.8 501 104.36 510.84 104.36 510.84 101.08 504.28 101.08"/>
      <rect class="st1" x="507.56" y="104.36" width="3.28" height="3.28"/>
      <rect class="st1" x="504.28" y="78.12" width="3.28" height="3.28"/>
      <rect class="st1" x="504.28" y="71.56" width="3.28" height="6.56"/>
      <rect class="st1" x="504.28" y="65" width="3.28" height="6.56"/>
      <rect class="st1" x="487.88" y="97.8" width="9.84" height="3.28"/>
      <rect class="st1" x="494.44" y="87.96" width="19.68" height="3.28"/>
      <rect class="st1" x="510.84" y="94.52" width="3.28" height="3.28"/>
      <polygon class="st1" points="520.68 110.92 517.4 110.92 517.4 107.64 514.12 107.64 514.12 110.92 510.84 110.92 510.84 107.64 504.28 107.64 504.28 110.92 507.56 110.92 507.56 114.2 523.96 114.2 523.96 110.92 537.08 110.92 537.08 107.64 520.68 107.64 520.68 110.92"/>
      <rect class="st1" x="530.52" y="114.2" width="22.96" height="3.28"/>
      <rect class="st1" x="520.68" y="74.84" width="6.56" height="3.28"/>
      <rect class="st1" x="517.4" y="71.56" width="3.28" height="3.28"/>
      <rect class="st1" x="530.52" y="74.84" width="3.28" height="3.28"/>
      <rect class="st1" x="527.24" y="71.56" width="3.28" height="3.28"/>
      <rect class="st1" x="514.12" y="78.12" width="3.28" height="3.28"/>
      <rect class="st1" x="537.08" y="78.12" width="3.28" height="3.28"/>
      <rect class="st1" x="537.08" y="81.4" width="3.28" height="6.56"/>
      <rect class="st1" x="497.72" y="114.2" width="9.84" height="3.28"/>
      <rect class="st1" x="543.64" y="65" width="3.28" height="6.56"/>
      <rect class="st1" x="520.68" y="84.68" width="3.28" height="3.28"/>
      <rect class="st1" x="543.64" y="78.12" width="3.28" height="3.28"/>
      <rect class="st1" x="537.08" y="71.56" width="3.28" height="6.56"/>
      <rect class="st1" x="530.52" y="87.96" width="6.56" height="3.28"/>
      <rect class="st1" x="523.96" y="78.12" width="6.56" height="3.28"/>
      <rect class="st1" x="543.64" y="71.56" width="3.28" height="6.56"/>
      <rect class="st1" x="517.4" y="81.4" width="3.28" height="3.28"/>
      <rect class="st1" x="523.96" y="81.4" width="3.28" height="3.28"/>
      <rect class="st1" x="510.84" y="74.84" width="3.28" height="3.28"/>
      <rect class="st1" x="510.84" y="81.4" width="3.28" height="3.28"/>
      <rect class="st1" x="540.36" y="87.96" width="3.28" height="3.28"/>
      <rect class="st1" x="527.24" y="84.68" width="3.28" height="3.28"/>
      <rect class="st1" x="530.52" y="81.4" width="3.28" height="3.28"/>
      <polygon class="st1" points="533.8 71.56 540.36 71.56 540.36 65 537.08 65 537.08 68.28 533.8 68.28 533.8 71.56"/>
      <rect class="st1" x="537.08" y="61.72" width="3.28" height="3.28"/>
      <rect class="st1" x="530.52" y="61.72" width="3.28" height="3.28"/>
      <polygon class="st1" points="520.68 65 517.4 65 517.4 68.28 514.12 68.28 514.12 65 510.84 65 510.84 71.56 520.68 71.56 520.68 65"/>
      <rect class="st1" x="510.84" y="61.72" width="6.56" height="3.28"/>
      <rect class="st1" x="527.24" y="68.28" width="3.28" height="3.28"/>
      <rect class="st1" x="563.32" y="78.12" width="3.28" height="3.28"/>
      <rect class="st1" x="560.04" y="130.6" width="6.56" height="3.28"/>
      <rect class="st1" x="556.76" y="114.2" width="6.56" height="3.28"/>
      <rect class="st1" x="517.4" y="104.36" width="3.28" height="3.28"/>
      <rect class="st1" x="510.84" y="140.44" width="6.56" height="3.28"/>
      <polygon class="st1" points="546.92 107.64 540.36 107.64 540.36 114.2 550.2 114.2 550.2 110.92 546.92 110.92 546.92 107.64"/>
      <rect class="st1" x="556.76" y="117.48" width="6.56" height="3.28"/>
      <rect class="st1" x="563.32" y="120.76" width="3.28" height="3.28"/>
      <rect class="st1" x="553.48" y="140.44" width="3.28" height="3.28"/>
      <rect class="st1" x="523.96" y="133.88" width="3.28" height="3.28"/>
      <rect class="st1" x="517.4" y="133.88" width="3.28" height="3.28"/>
      <rect class="st1" x="563.32" y="140.44" width="3.28" height="3.28"/>
      <rect class="st1" x="527.24" y="140.44" width="6.56" height="3.28"/>
      <polygon class="st1" points="550.2 110.92 553.48 110.92 553.48 114.2 560.04 114.2 560.04 110.92 563.32 110.92 563.32 114.2 566.6 114.2 566.6 107.64 550.2 107.64 550.2 110.92"/>
      <rect class="st1" x="537.08" y="140.44" width="3.28" height="3.28"/>
      <polygon class="st1" points="550.2 137.16 540.36 137.16 540.36 140.44 553.48 140.44 553.48 137.16 556.76 137.16 556.76 140.44 566.6 140.44 566.6 133.88 550.2 133.88 550.2 137.16"/>
      <rect class="st1" x="563.32" y="71.56" width="3.28" height="6.56"/>
      <rect class="st1" x="550.2" y="71.56" width="9.84" height="6.56"/>
      <rect class="st1" x="550.2" y="68.28" width="9.84" height="3.28"/>
      <rect class="st1" x="543.64" y="61.72" width="22.96" height="3.28"/>
      <rect class="st1" x="563.32" y="65" width="3.28" height="6.56"/>
      <rect class="st1" x="543.64" y="81.4" width="22.96" height="3.28"/>
      <rect class="st1" x="550.2" y="104.36" width="3.28" height="3.28"/>
      <rect class="st1" x="556.76" y="87.96" width="9.84" height="3.28"/>
      <rect class="st1" x="563.32" y="94.52" width="3.28" height="3.28"/>
      <rect class="st1" x="560.04" y="104.36" width="3.28" height="3.28"/>
      <polygon class="st1" points="530.52 101.08 533.8 101.08 533.8 104.36 537.08 104.36 537.08 101.08 543.64 101.08 543.64 104.36 550.2 104.36 550.2 101.08 563.32 101.08 563.32 104.36 566.6 104.36 566.6 97.8 530.52 97.8 530.52 101.08"/>
      <polygon class="st1" points="563.32 91.24 546.92 91.24 546.92 94.52 543.64 94.52 543.64 91.24 540.36 91.24 540.36 94.52 537.08 94.52 537.08 91.24 523.96 91.24 523.96 97.8 530.52 97.8 530.52 94.52 533.8 94.52 533.8 97.8 550.2 97.8 550.2 94.52 553.48 94.52 553.48 97.8 556.76 97.8 556.76 94.52 563.32 94.52 563.32 91.24"/>
      <rect class="st1" x="550.2" y="87.96" width="3.28" height="3.28"/>
      <rect class="st1" x="560.04" y="124.04" width="6.56" height="6.56"/>
      <rect class="st1" x="484.6" y="104.36" width="6.56" height="3.28"/>
      <rect class="st1" x="484.6" y="81.4" width="22.96" height="3.28"/>
      <rect class="st1" x="484.6" y="78.12" width="3.28" height="3.28"/>
      <rect class="st1" x="484.6" y="140.44" width="22.96" height="3.28"/>
      <rect class="st1" x="484.6" y="94.52" width="3.28" height="3.28"/>
      <polygon class="st1" points="491.16 97.8 494.44 97.8 494.44 94.52 497.72 94.52 497.72 91.24 487.88 91.24 487.88 94.52 491.16 94.52 491.16 97.8"/>
      <rect class="st1" x="484.6" y="87.96" width="3.28" height="3.28"/>
      <rect class="st1" x="484.6" y="65" width="3.28" height="6.56"/>
      <rect class="st1" x="520.68" y="87.96" width="6.56" height="3.28"/>
      <polygon class="st1" points="514.12 101.08 517.4 101.08 517.4 104.36 527.24 104.36 527.24 97.8 514.12 97.8 514.12 101.08"/>
      <rect class="st1" x="484.6" y="61.72" width="22.96" height="3.28"/>
      <rect class="st1" x="491.16" y="71.56" width="9.84" height="6.56"/>
      <rect class="st1" x="491.16" y="68.28" width="9.84" height="3.28"/>
      <rect class="st1" x="484.6" y="71.56" width="3.28" height="6.56"/>
      <rect class="st1" x="491.16" y="133.88" width="9.84" height="3.28"/>
      <rect class="st1" x="491.16" y="130.6" width="9.84" height="3.28"/>
      <rect class="st1" x="484.6" y="124.04" width="3.28" height="6.56"/>
      <rect class="st1" x="491.16" y="127.32" width="9.84" height="3.28"/>
      <rect class="st1" x="484.6" y="130.6" width="3.28" height="3.28"/>
      <rect class="st1" x="484.6" y="133.88" width="3.28" height="6.56"/>
      <polygon class="st1" points="487.88 110.92 497.72 110.92 497.72 107.64 484.6 107.64 484.6 114.2 487.88 114.2 487.88 110.92"/>
      <rect class="st1" x="504.28" y="124.04" width="3.28" height="6.56"/>
      <rect class="st1" x="484.6" y="114.2" width="3.28" height="3.28"/>
      <rect class="st1" x="491.16" y="114.2" width="3.28" height="3.28"/>
      <rect class="st1" x="484.6" y="120.76" width="22.96" height="3.28"/>
      <rect class="st1" x="504.28" y="133.88" width="3.28" height="6.56"/>
      <rect class="st1" x="504.28" y="130.6" width="3.28" height="3.28"/>
    </g>
  </g>
  <g transform="translate(12.00 0)">
    <g>
      <path class="st15" d="M28.77,133.57v.05c-.04.34-.18.65-.42.89l-.18.18c-.24.24-.55.39-.89.43h-.08c-.26.03-.51.05-.77.05v.06c.26,0,.51.02.77.05h.08c.34.04.65.19.89.43l.18.18c.24.24.39.56.43.89v.04c.03.25.04.51.05.77h.06c0-.25.02-.51.05-.77v-.04c.04-.34.19-.65.43-.89l.19-.19c.24-.24.56-.39.89-.43h0c.26-.03.51-.04.77-.05v-.06c-.26,0-.51-.03-.77-.05h0c-.34-.04-.65-.19-.89-.43l-.19-.19c-.24-.24-.39-.56-.43-.89v-.04c-.03-.25-.04-.51-.05-.77h-.06c-.02.26-.03.53-.06.78Z"/>
      <path class="st11" d="M27.05,138.4v.03c-.03.24-.13.47-.31.64l-.13.13c-.17.17-.4.28-.64.31h-.06c-.19.02-.37.03-.55.04v.05c.19,0,.37.02.55.04h.06c.24.03.47.14.64.31l.13.13c.17.17.28.4.31.64v.03c.02.19.03.37.04.55h.04c0-.18.02-.37.04-.55v-.03c.03-.24.13-.47.3-.64l.14-.13c.17-.17.4-.28.64-.31h0c.18-.02.37-.03.55-.04v-.04c-.19,0-.37,0-.55-.04h0c-.24-.03-.47-.14-.64-.31l-.13-.14c-.17-.17-.28-.4-.31-.64v-.03c-.02-.18-.03-.37-.04-.55h-.05c0,.18-.02.38-.04.56Z"/>
      <path class="st11" d="M31.06,141.86c0-1.54.34-2.9,1.02-4.08.68-1.17,1.65-2.08,2.92-2.73,1.27-.65,2.81-.97,4.62-.97s3.31.33,4.63.99c1.32.66,2.36,1.58,3.1,2.77s1.11,2.53,1.11,4.04-.34,2.92-1.02,4.09c-.68,1.17-1.65,2.07-2.93,2.72-1.28.65-2.81.97-4.61.97s-3.31-.33-4.63-1c-1.32-.67-2.36-1.59-3.1-2.75-.74-1.17-1.11-2.51-1.11-4.04ZM31.48,141.96c0,.98.35,1.83,1.06,2.55.71.73,1.69,1.28,2.93,1.68,1.24.39,2.69.59,4.33.59s3.12-.22,4.36-.66c1.24-.44,2.19-1.04,2.86-1.8.67-.76,1-1.6,1-2.53,0-.98-.35-1.82-1.06-2.54-.71-.72-1.69-1.28-2.94-1.68-1.25-.4-2.69-.6-4.31-.6s-3.14.22-4.37.67c-1.23.45-2.18,1.05-2.85,1.8-.67.75-1,1.59-1,2.52Z"/>
      <path class="st15" d="M35.92,142.98c1.08.29,2.35.43,3.78.43s2.74-.16,3.81-.49c1.08-.32,1.21-.32,2.62-1.23.42-.27,1.1-1.18,1.1-1.18-.1.86-.38,1.62-.85,2.31-.59.86-1.45,1.53-2.56,2.01s-2.46.72-4.03.72-2.89-.25-4.05-.75c-1.16-.5-2.06-1.17-2.71-2.04-.51-.67-.82-1.42-.92-2.25,0,0,.27.46.68.84,1.1,1.01,2.04,1.33,3.13,1.62Z"/>
      <path class="st11" d="M38.24,120.66c-.87.38-1.52.89-1.97,1.55-.44.65-.67,1.39-.67,2.21,0,1.04.33,1.93.98,2.68.41.46.92.82,1.52,1.08h-2.43c.11.39.19.82.25,1.29.05.47.08.97.08,1.49,0,.47-.02.96-.07,1.47h.5c0-.66.17-1.12.51-1.35.34-.24.87-.35,1.57-.35h11.89c.58,0,.98.11,1.19.34.21.23.31.62.31,1.17h.5c-.02-.26-.04-.65-.06-1.16-.02-.5-.04-1.02-.04-1.54,0-.74.01-1.43.04-2.08.03-.64.04-1.15.06-1.51h-.5c0,.69-.11,1.24-.35,1.63-.24.39-.71.59-1.39.59h-2.82c.26-.21.47-.49.66-.82.3-.52.45-1.14.45-1.83,0-.93-.19-1.73-.56-2.41s-.87-1.24-1.52-1.69c-.64-.45-1.38-.79-2.22-1.01-.84-.22-1.74-.33-2.69-.33-1.29,0-2.37.19-3.24.56ZM44.94,123.1c.9.19,1.62.51,2.14.98.53.46.79,1.11.79,1.92,0,.56-.12,1.02-.38,1.39-.23.34-.51.61-.86.79h-7.51c-.79-.18-1.42-.49-1.86-.94-.57-.57-.85-1.22-.85-1.92,0-.54.19-.99.55-1.37.37-.38.96-.66,1.75-.85.79-.19,1.84-.29,3.13-.29,1.15,0,2.18.09,3.09.29Z"/>
      <path class="st11" d="M35.66,107.33h9.9c.71,0,1.23-.12,1.57-.37.34-.24.51-.69.51-1.34h.5c-.05.49-.07.98-.07,1.47,0,.52.02,1.02.07,1.49.05.47.13.91.26,1.3h-2.58c.95.39,1.62.94,2.02,1.64.4.7.6,1.44.6,2.21,0,.58-.08,1.08-.25,1.49-.16.41-.38.75-.65,1.02-.32.28-.72.48-1.22.59s-1.12.17-1.88.17h-5.96c-.71,0-1.23.12-1.57.35s-.51.69-.51,1.35h-.5c.05-.5.07-.99.07-1.47,0-.52-.03-1.02-.08-1.49s-.14-.91-.25-1.3h9.45c.46,0,.87-.03,1.25-.09.38-.06.68-.21.9-.45.22-.24.33-.61.33-1.13,0-.55-.17-1.04-.5-1.48-.33-.43-.78-.78-1.35-1.03-.57-.25-1.21-.38-1.91-.38h-5.34c-.71,0-1.23.12-1.57.35s-.51.69-.51,1.35h-.5c.05-.5.07-.99.07-1.47,0-.52-.03-1.02-.08-1.49s-.14-.91-.25-1.3Z"/>
      <path class="st11" d="M35.59,100.1c0-.63.1-1.18.3-1.64.2-.46.37-.8.53-1,.41-.52.14-.84-.8-.97v-.52c.44.03.97.06,1.6.07.62.02,1.45.02,2.47.02v.52c-.58.09-1.15.26-1.7.48s-1.01.56-1.37.99c-.36.43-.54,1-.54,1.69,0,.52.15.95.44,1.3.29.35.72.52,1.29.52.47,0,.88-.14,1.23-.43.35-.28.67-.65.97-1.1.3-.45.62-.93.97-1.45.39-.58.78-1.11,1.17-1.57.39-.46.82-.84,1.29-1.11.47-.28,1.02-.41,1.65-.41.72,0,1.34.19,1.84.58.5.39.89.89,1.15,1.52.26.63.39,1.32.39,2.08,0,.38-.04.73-.11,1.06-.07.33-.16.64-.27.92-.09.17-.19.34-.3.51-.1.17-.2.33-.3.48-.11.16-.09.3.05.43s.39.22.76.28v.52c-.5-.03-1.12-.06-1.84-.07-.72-.02-1.69-.02-2.88-.02v-.52c.87-.11,1.63-.28,2.29-.5.66-.22,1.18-.55,1.55-.98.37-.43.56-1.03.56-1.78,0-.3-.07-.6-.2-.9-.13-.3-.35-.55-.65-.74-.3-.2-.7-.3-1.21-.3-.69,0-1.26.24-1.71.72-.45.48-.93,1.1-1.43,1.86-.38.54-.75,1.04-1.12,1.52-.37.48-.79.87-1.25,1.17-.46.3-1.02.45-1.67.45-.71,0-1.29-.17-1.75-.51-.46-.34-.8-.79-1.03-1.36s-.34-1.17-.34-1.82Z"/>
      <path class="st15" d="M32.71,82.52c-.87.99-1.3,2.49-1.3,4.49,0,.28,0,.77.02,1.45.02.69.03,1.41.03,2.16,0,.57,0,1.14-.03,1.72-.01.58-.03,1.04-.04,1.41h.47c.01-.52.07-.92.18-1.19.1-.28.29-.46.56-.54.28-.09.71-.13,1.29-.13h11.73c.56,0,.99.04,1.27.13.29.09.47.26.57.53.09.27.16.67.19,1.21h.47c-.03-.39-.05-.88-.06-1.45,0-.58-.01-1.18-.01-1.81,0-.73,0-1.43.01-2.11,0-.67.03-1.23.06-1.65h-.49c-.01.68-.07,1.19-.16,1.54-.1.34-.29.58-.58.71-.29.13-.73.19-1.32.19h-4.2v-1.63c0-1.29-.16-2.35-.5-3.19-.33-.84-.76-1.49-1.29-1.99-.53-.49-1.1-.83-1.72-1.02-.62-.2-1.22-.3-1.79-.3-1.37,0-2.49.5-3.35,1.49ZM38.57,84.21c.69.2,1.25.57,1.67,1.14.43.56.64,1.37.64,2.42v1.39h-7c-.82,0-1.37-.1-1.63-.31-.27-.21-.4-.66-.4-1.34,0-1.32.37-2.25,1.11-2.79.74-.54,1.86-.8,3.36-.8.8,0,1.55.09,2.24.29Z"/>
      <path class="st15" d="M48.29,76.63c0,.66-.13,1.23-.38,1.7-.25.47-.6.83-1.04,1.06-.44.24-.95.35-1.51.35-.69,0-1.26-.16-1.69-.47-.43-.31-.78-.72-1.05-1.22-.27-.5-.49-1.02-.67-1.58-.18-.56-.35-1.09-.52-1.58-.17-.5-.36-.91-.58-1.23-.22-.32-.51-.48-.87-.48h-1.61c-.57,0-1.02.09-1.36.27-.34.18-.58.43-.72.73s-.21.67-.21,1.1c0,.36.05.75.15,1.16.1.41.3.73.6.97.09-.35.28-.63.56-.86.28-.23.62-.34,1.03-.34.44,0,.79.15,1.04.44s.38.66.38,1.1c0,.49-.15.85-.46,1.09-.31.24-.67.35-1.08.35s-.77-.11-1.04-.32-.52-.49-.76-.84c-.25-.38-.46-.86-.64-1.45-.17-.59-.26-1.25-.26-1.97,0-.68.07-1.26.22-1.76.15-.5.39-.91.72-1.24.36-.39.82-.65,1.36-.78.54-.13,1.2-.19,1.97-.19h6.52c.39,0,.67-.05.84-.15.16-.1.25-.27.25-.51,0-.16-.04-.31-.12-.46-.08-.15-.2-.33-.35-.53l.4-.24c.27.33.48.67.64,1,.16.34.24.77.24,1.29s-.08.91-.24,1.23c-.16.32-.39.55-.68.7-.3.15-.67.22-1.11.22.66.41,1.17.9,1.51,1.47.35.57.52,1.23.52,1.99ZM47.15,75.49c0-.44-.13-.85-.38-1.24-.25-.39-.63-.74-1.13-1.08h-4.7c.25.17.47.43.65.76.18.33.37.68.56,1.06s.41.74.65,1.08c.24.34.56.62.93.84.38.22.86.33,1.44.33.62,0,1.1-.16,1.45-.47.35-.31.53-.74.53-1.28Z"/>
      <path class="st15" d="M35.59,63.63c0-.63.1-1.18.3-1.64.2-.46.37-.8.53-1,.41-.52.14-.84-.8-.97v-.52c.44.03.97.06,1.6.07.62.02,1.45.02,2.47.02v.52c-.58.09-1.15.26-1.7.48-.55.23-1.01.56-1.37.99-.36.43-.54,1-.54,1.69,0,.52.15.95.44,1.3.29.35.72.52,1.29.52.47,0,.88-.14,1.23-.43s.67-.65.97-1.1.62-.93.97-1.45c.39-.58.78-1.11,1.17-1.57.39-.46.82-.84,1.29-1.11s1.02-.41,1.65-.41c.72,0,1.34.19,1.84.58s.89.89,1.15,1.52c.26.63.39,1.32.39,2.08,0,.38-.04.73-.11,1.06-.07.33-.16.64-.27.92-.09.17-.19.34-.3.51-.1.17-.2.33-.3.48-.11.16-.09.3.05.43s.39.22.76.28v.52c-.5-.03-1.12-.06-1.84-.07-.72-.02-1.69-.02-2.88-.02v-.52c.87-.11,1.63-.28,2.29-.5s1.18-.55,1.55-.98c.37-.43.56-1.03.56-1.78,0-.3-.07-.6-.2-.9-.13-.3-.35-.55-.65-.74-.3-.2-.7-.3-1.21-.3-.69,0-1.26.24-1.71.72-.45.48-.93,1.1-1.43,1.86-.38.54-.75,1.04-1.12,1.52-.37.48-.79.87-1.25,1.17-.46.3-1.02.45-1.67.45-.71,0-1.29-.17-1.75-.51-.46-.34-.8-.79-1.03-1.36-.23-.57-.34-1.17-.34-1.82Z"/>
      <path class="st15" d="M35.59,52.95c0-.63.1-1.18.3-1.64.2-.46.37-.8.53-1,.41-.52.14-.84-.8-.97v-.52c.44.03.97.06,1.6.07.62.02,1.45.02,2.47.02v.52c-.58.09-1.15.26-1.7.48-.55.23-1.01.56-1.37.99-.36.43-.54,1-.54,1.69,0,.52.15.95.44,1.3.29.35.72.52,1.29.52.47,0,.88-.14,1.23-.43s.67-.65.97-1.1.62-.93.97-1.45c.39-.58.78-1.11,1.17-1.57.39-.46.82-.84,1.29-1.11s1.02-.41,1.65-.41c.72,0,1.34.19,1.84.58s.89.89,1.15,1.52c.26.63.39,1.32.39,2.08,0,.38-.04.73-.11,1.06-.07.33-.16.64-.27.92-.09.17-.19.34-.3.51-.1.17-.2.33-.3.48-.11.16-.09.3.05.43s.39.22.76.28v.52c-.5-.03-1.12-.06-1.84-.07-.72-.02-1.69-.02-2.88-.02v-.52c.87-.11,1.63-.28,2.29-.5s1.18-.55,1.55-.98c.37-.43.56-1.03.56-1.78,0-.3-.07-.6-.2-.9-.13-.3-.35-.55-.65-.74-.3-.2-.7-.3-1.21-.3-.69,0-1.26.24-1.71.72-.45.48-.93,1.1-1.43,1.86-.38.54-.75,1.04-1.12,1.52-.37.48-.79.87-1.25,1.17-.46.3-1.02.45-1.67.45-.71,0-1.29-.17-1.75-.51-.46-.34-.8-.79-1.03-1.36-.23-.57-.34-1.17-.34-1.82Z"/>
    </g>
    <g>
      <path class="st11" d="M50.99,91.03h3.76v.46h-3.76v-.46ZM50.99,91.24v-1.9h.43v1.9h-.43ZM52.49,91.24v-1.79h.43v1.79h-.43ZM54.32,91.24v-1.9h.43v1.9h-.43Z"/>
      <path class="st11" d="M52.28,88.51l1.75-.7-1.75-.7v-.48l2.66,1.18-2.66,1.18v-.48Z"/>
      <path class="st11" d="M54.64,85.92c-.11.18-.26.32-.45.41-.19.1-.42.15-.67.15s-.48-.05-.68-.15c-.19-.1-.34-.25-.45-.43-.11-.18-.16-.4-.16-.64s.05-.45.15-.63c.1-.17.25-.31.44-.4.19-.09.42-.14.68-.14.02,0,.05,0,.08,0,.03,0,.04,0,.05,0v2.11h-.36v-1.77l.25.17s-.05-.02-.08-.03-.07-.02-.09-.02c-.15,0-.27.03-.38.09-.11.06-.19.14-.25.24s-.09.23-.09.37c0,.16.03.3.1.42.07.12.17.21.3.27.13.06.29.1.48.1.19,0,.36-.03.49-.09.14-.06.24-.15.31-.27.07-.12.11-.26.11-.43s-.04-.32-.11-.45-.19-.24-.34-.33l.22-.35c.21.13.36.29.47.49.11.2.16.43.16.69,0,.23-.05.43-.16.61Z"/>
      <path class="st11" d="M54.75,83.06v.43h-2.47v-.43h2.47ZM52.65,82.47s-.03.11-.03.18c0,.11.03.19.08.25s.13.1.22.13c.09.02.2.04.32.04v.19c-.2,0-.37-.03-.52-.1-.15-.07-.27-.16-.36-.27-.09-.11-.13-.22-.13-.34,0-.09.01-.17.04-.25s.07-.15.14-.21l.35.24c-.04.06-.07.11-.09.16Z"/>
      <path class="st11" d="M55.93,81.1v.48l-1.53-.68-2.12.95v-.51l1.93-.78-.02.18-1.91-.76v-.48l3.65,1.61Z"/>
      <path class="st11" d="M50.99,76.99h3.76v.46h-3.76v-.46Z"/>
      <path class="st11" d="M52.78,74.7c-.1.09-.16.22-.16.39,0,.13.03.24.08.33.05.09.12.17.22.22.09.05.2.08.32.08h1.5v.43h-2.47v-.43h.39c-.15-.08-.26-.19-.33-.31-.07-.12-.11-.27-.11-.43,0-.26.09-.47.26-.62.17-.15.41-.23.71-.23h1.56v.43h-1.5c-.2,0-.36.04-.46.13Z"/>
      <path class="st11" d="M52.28,73.34l1.75-.7-1.75-.7v-.48l2.66,1.18-2.66,1.18v-.48Z"/>
      <path class="st11" d="M51.05,70.98c-.06-.06-.09-.13-.09-.21s.03-.15.09-.21.13-.09.21-.09.15.03.21.09c.06.06.09.13.09.21s-.03.15-.09.21-.13.09-.21.09c-.08,0-.15-.03-.21-.09ZM52.28,70.56h2.47v.43h-2.47v-.43Z"/>
      <path class="st11" d="M52.28,68.84h.4v1.24h-.4v-1.24ZM51.42,69.24h3.33v.43h-3.33v-.43Z"/>
      <path class="st11" d="M54.64,68.04c-.11.18-.26.32-.45.41-.19.1-.42.15-.67.15s-.48-.05-.68-.15c-.19-.1-.34-.25-.45-.43-.11-.18-.16-.4-.16-.64s.05-.45.15-.63c.1-.17.25-.31.44-.4.19-.09.42-.14.68-.14.02,0,.05,0,.08,0,.03,0,.04,0,.05,0v2.11h-.36v-1.77l.25.17s-.05-.02-.08-.03-.07-.02-.09-.02c-.15,0-.27.03-.38.09-.11.06-.19.14-.25.24s-.09.23-.09.37c0,.16.03.3.1.42.07.12.17.21.3.27.13.06.29.1.48.1.19,0,.36-.03.49-.09.14-.06.24-.15.31-.27.07-.12.11-.26.11-.43s-.04-.32-.11-.45-.19-.24-.34-.33l.22-.35c.21.13.36.29.47.49.11.2.16.43.16.69,0,.23-.05.43-.16.61Z"/>
      <path class="st11" d="M53.63,63.52c.22-.13.4-.3.52-.51.13-.21.19-.44.19-.69,0-.18-.02-.34-.07-.49s-.11-.28-.2-.41-.18-.23-.29-.31h.6c.14.16.24.33.31.52.07.19.1.42.1.69,0,.26-.05.51-.14.73-.09.23-.23.43-.4.6-.17.17-.38.31-.61.4-.24.1-.49.14-.77.14s-.54-.05-.77-.14c-.24-.1-.44-.23-.61-.4-.17-.17-.31-.37-.4-.6-.09-.23-.14-.47-.14-.73,0-.28.03-.51.1-.69.07-.19.17-.36.31-.52h.6c-.11.09-.21.19-.29.31s-.15.26-.2.41c-.05.15-.07.31-.07.49,0,.25.06.48.19.69.13.21.3.38.52.51.22.13.48.2.77.2s.55-.07.77-.2Z"/>
      <path class="st11" d="M52.85,60.43c-.19-.11-.35-.27-.46-.46s-.17-.41-.17-.65.06-.46.17-.65.26-.34.46-.46c.19-.11.42-.17.67-.17s.47.06.66.17c.2.11.35.27.46.46.11.19.17.41.17.65s-.06.46-.17.65c-.11.19-.26.35-.46.46-.2.11-.42.17-.66.17s-.47-.06-.67-.17ZM53.97,60.05c.13-.07.24-.17.31-.3.08-.13.12-.27.12-.43s-.04-.31-.12-.43-.18-.23-.31-.3-.28-.11-.46-.11-.33.04-.46.11-.24.17-.31.3c-.07.13-.11.27-.11.43s.04.3.11.43c.08.13.18.23.31.3.13.07.29.11.46.11s.32-.04.46-.11Z"/>
      <path class="st11" d="M54.24,56.9c.11-.09.16-.22.16-.39,0-.13-.03-.24-.08-.33-.05-.09-.12-.17-.22-.22-.09-.05-.2-.08-.32-.08h-1.5v-.43h2.47v.43h-.39c.15.08.26.18.33.31s.11.27.11.43c0,.26-.09.46-.26.62s-.41.23-.7.23h-1.56v-.43h1.5c.2,0,.35-.04.46-.13Z"/>
      <path class="st11" d="M52.78,53.22c-.1.09-.16.22-.16.39,0,.13.03.24.08.33.05.09.12.17.22.22.09.05.2.08.32.08h1.5v.43h-2.47v-.43h.39c-.15-.08-.26-.19-.33-.31-.07-.12-.11-.27-.11-.43,0-.26.09-.47.26-.62.17-.15.41-.23.71-.23h1.56v.43h-1.5c-.2,0-.36.04-.46.13Z"/>
      <path class="st11" d="M52.28,51.02h.4v1.24h-.4v-1.24ZM51.42,51.42h3.33v.43h-3.33v-.43Z"/>
      <path class="st11" d="M54.2,50.25c.06-.06.12-.14.15-.22s.06-.18.06-.28c0-.12-.03-.22-.08-.29-.06-.07-.13-.1-.23-.1-.09,0-.16.03-.22.08-.06.06-.11.13-.15.21-.04.09-.08.18-.12.27-.04.11-.09.22-.15.33-.06.11-.14.2-.23.27-.09.07-.21.11-.36.11s-.27-.04-.37-.12c-.1-.08-.17-.18-.21-.3-.05-.12-.07-.25-.07-.38s.02-.26.06-.37c.04-.12.1-.22.17-.31.07-.09.15-.16.25-.21l.22.34c-.09.07-.17.15-.23.25s-.09.22-.09.35c0,.09.02.17.06.23.04.06.1.1.18.1.06,0,.12-.02.17-.08.05-.05.09-.11.13-.19.04-.08.08-.16.11-.25.06-.14.12-.27.19-.39.07-.12.15-.21.24-.28.09-.07.21-.1.36-.1.21,0,.39.08.54.23.14.16.21.36.21.61,0,.16-.03.31-.09.45-.06.13-.13.24-.23.34-.09.09-.19.16-.28.21l-.21-.34c.08-.05.14-.11.21-.17Z"/>
    </g>
  </g>
  <g id="GuestTicketCopy">
    <text x="124" y="72" font-family="Georgia, 'Times New Roman', serif" font-size="18" font-weight="700" fill="#4a2377">Every guest gets a OpusPass Ticket</text>
    <text font-family="-apple-system, 'Segoe UI', Roboto, Helvetica, Arial, sans-serif" font-size="11.4" fill="#4b4b4b">
      <tspan x="124" y="100">A personalised <tspan font-weight="700" fill="#5c2d8c">boarding-pass-style ticket</tspan> with their</tspan>
      <tspan x="124" y="118">name, event details, and a unique QR code &#8212; your</tspan>
      <tspan x="124" y="136">attendant scans it at the door for seamless entry.</tspan>
    </text>
  </g>
</svg>
