<svg xmlns="http://www.w3.org/2000/svg" viewBox="0 0 288.58 94.05"><defs><style>.cls-1{stroke:#000;}.cls-1,.cls-2{stroke-miterlimit:10;stroke-width:0.5px;}.cls-2{fill:#d0b1d4;stroke:#d0b1d4;}</style></defs><title>Asset 4</title><g id="Layer_2" data-name="Layer 2"><g id="Layer_1-2" data-name="Layer 1"><path d="M6.83,92H4.93V82.25H7.51A3.86,3.86,0,0,1,10,83a2.8,2.8,0,0,1,.88,2.3,3.06,3.06,0,0,1-.8,2.3,3.21,3.21,0,0,1-2.32.78H6.83Zm0-5.22h.39a2.17,2.17,0,0,0,1.32-.31A1.44,1.44,0,0,0,9,85.26a1.28,1.28,0,0,0-.44-1.15,2.5,2.5,0,0,0-1.34-.28H6.83Z"/><path d="M18.31,90.34H21V92H16.41V82.25h1.9Z"/><path d="M28.25,89.94l-.81,2h-2l3.8-10h1.47l3.7,10h-2l-.75-2Zm1.64-5.09h0l-1.07,3.54H31.1Z"/><path d="M39.64,82H41l5.14,6.81h0V82.25h1.9v9.94H46.7l-5.13-6.81h0V92h-1.9Z"/><path d="M64.39,90.34h2.69V92H62.49V82.25h1.9Z"/><path d="M74.24,83.9v2.15h3V87.7h-3v2.64h3.14V92h-5V82.25h5V83.9Z"/><path d="M87.89,84.39a2.22,2.22,0,0,0-.64-.59,1.59,1.59,0,0,0-.82-.21,1.23,1.23,0,0,0-.83.32,1,1,0,0,0-.36.78.84.84,0,0,0,.35.71,5.57,5.57,0,0,0,1.1.58c.37.16.68.3.93.44a3.45,3.45,0,0,1,.72.52,2.35,2.35,0,0,1,.56.81,3,3,0,0,1,.21,1.17,3.38,3.38,0,0,1-.87,2.41,3.08,3.08,0,0,1-2.34.92,3,3,0,0,1-1.72-.5,4.35,4.35,0,0,1-1.28-1.4l1.23-1.2a2.35,2.35,0,0,0,.69,1,1.63,1.63,0,0,0,1.07.41,1.13,1.13,0,0,0,.9-.41,1.47,1.47,0,0,0,.35-1,1.21,1.21,0,0,0-.13-.58,1.15,1.15,0,0,0-.35-.41,2.18,2.18,0,0,0-.46-.28c-.16-.07-.36-.16-.6-.25l-.15-.07a4.72,4.72,0,0,1-.9-.44,3.2,3.2,0,0,1-.67-.53,2,2,0,0,1-.45-.72,2.82,2.82,0,0,1-.15-1,3.1,3.1,0,0,1,.21-1.13,2.8,2.8,0,0,1,.6-.94,2.88,2.88,0,0,1,.91-.62A2.77,2.77,0,0,1,86.12,82a4,4,0,0,1,1.45.3,3.07,3.07,0,0,1,1.21.79Z"/><path d="M99.34,84.39a2.22,2.22,0,0,0-.64-.59,1.56,1.56,0,0,0-.82-.21,1.25,1.25,0,0,0-.83.32,1,1,0,0,0-.36.78.84.84,0,0,0,.35.71,5.57,5.57,0,0,0,1.1.58c.37.16.68.3.93.44a3.45,3.45,0,0,1,.72.52,2.35,2.35,0,0,1,.56.81,3,3,0,0,1,.21,1.17,3.38,3.38,0,0,1-.87,2.41,3.34,3.34,0,0,1-4.06.42,4.35,4.35,0,0,1-1.28-1.4l1.23-1.2a2.35,2.35,0,0,0,.69,1,1.65,1.65,0,0,0,1.07.41,1.13,1.13,0,0,0,.9-.41,1.47,1.47,0,0,0,.35-1,1.21,1.21,0,0,0-.13-.58,1.15,1.15,0,0,0-.35-.41,2.11,2.11,0,0,0-.45-.28c-.16-.07-.36-.16-.61-.25l-.15-.07a5,5,0,0,1-.9-.44,3.2,3.2,0,0,1-.67-.53,2.2,2.2,0,0,1-.45-.72,2.82,2.82,0,0,1-.15-1,3.1,3.1,0,0,1,.21-1.13,2.8,2.8,0,0,1,.6-.94,2.88,2.88,0,0,1,.91-.62A2.77,2.77,0,0,1,97.57,82a4.14,4.14,0,0,1,1.46.3,3.1,3.1,0,0,1,1.2.79Z"/><path d="M108.91,90.16l-1.86,3.89-1.21-.14L107.25,90Z"/><path d="M129.49,84.83a2.84,2.84,0,0,0-1-.76,2.75,2.75,0,0,0-1.18-.27,2.53,2.53,0,0,0-1.2.28,2.86,2.86,0,0,0-.91.75,3.43,3.43,0,0,0-.57,1.09,4,4,0,0,0-.19,1.24,3.84,3.84,0,0,0,.2,1.21,3.53,3.53,0,0,0,.58,1.06,2.79,2.79,0,0,0,.9.74,2.56,2.56,0,0,0,1.18.27,2.64,2.64,0,0,0,1.17-.28,3.16,3.16,0,0,0,1-.75v2.26a8.68,8.68,0,0,1-1.11.43,4.11,4.11,0,0,1-1.1.15,4.43,4.43,0,0,1-1.87-.4,4.7,4.7,0,0,1-1.53-1.11,5.07,5.07,0,0,1-1-1.63,5.17,5.17,0,0,1-.35-1.91,5.72,5.72,0,0,1,.34-2,5.31,5.31,0,0,1,1-1.67,4.67,4.67,0,0,1,1.53-1.15,4.61,4.61,0,0,1,1.93-.41,4.4,4.4,0,0,1,2.17.57Z"/><path d="M137.3,83.9v2.15h3V87.7h-3v2.64h3.14V92h-5V82.25h5V83.9Z"/><path d="M148.26,90.34H151V92h-4.59V82.25h1.9Z"/><path d="M158.11,83.9v2.15h3V87.7h-3v2.64h3.14V92h-5V82.25h5V83.9Z"/><path d="M167.17,82.25h2.37a3.3,3.3,0,0,1,2.17.63,2.48,2.48,0,0,1,.75,2,2.91,2.91,0,0,1-.22,1.09,1.58,1.58,0,0,1-.64.79,1.72,1.72,0,0,1,1.24.86,3,3,0,0,1,.43,1.59,2.53,2.53,0,0,1-.85,2.07,3.5,3.5,0,0,1-2.26.69h-3Zm1.9,4.06h.23a1.64,1.64,0,0,0,1.06-.28,1.26,1.26,0,0,0,.33-1,1.17,1.17,0,0,0-.36-1,1.66,1.66,0,0,0-1-.28h-.25Zm0,4.16h.4a5.47,5.47,0,0,0,.76,0,1.72,1.72,0,0,0,.58-.18,1,1,0,0,0,.41-.43,1.6,1.6,0,0,0,.15-.74,1.37,1.37,0,0,0-.17-.72,1,1,0,0,0-.44-.4,1.78,1.78,0,0,0-.6-.16c-.22,0-.48,0-.78,0h-.31Z"/><path d="M185.56,92h-2.3l-2.36-3.92h0V92H179V82.25h2.57a3.61,3.61,0,0,1,2.39.72,2.68,2.68,0,0,1,.87,2.21,3.06,3.06,0,0,1-.53,1.77,2.09,2.09,0,0,1-1.46.93Zm-4.69-5.26h.25a2.26,2.26,0,0,0,1.32-.33,1.34,1.34,0,0,0,.46-1.17,1.25,1.25,0,0,0-.45-1.13,2.41,2.41,0,0,0-1.32-.3h-.26Z"/><path d="M192.83,89.94,192,92h-2l3.8-10h1.47L199,92h-2l-.75-2Zm1.64-5.09h0l-1.07,3.54h2.31Z"/><path d="M206.36,92h-1.9V83.9h-2V82.25h5.83V83.9h-2Z"/><path d="M215.57,83.9v2.15h3V87.7h-3v2.64h3.14V92h-5V82.25h5V83.9Z"/><path d="M240.3,85.94h0l-2.21,6.18h-.66l-2.13-6.18h0l-.86,6h-1.92l1.64-10h1.35l2.4,6.42,2.3-6.42h1.37L243,92h-1.91Z"/><path d="M257.32,89.12a5.09,5.09,0,0,1-1,1.64,4.53,4.53,0,0,1-1.53,1.1,5.25,5.25,0,0,1-4,0,4.35,4.35,0,0,1-1.53-1.1,4.75,4.75,0,0,1-1-1.64,5.81,5.81,0,0,1-.34-2,6,6,0,0,1,.34-2,4.92,4.92,0,0,1,1-1.63,4.42,4.42,0,0,1,1.53-1.08,5.15,5.15,0,0,1,3.93,0,4.62,4.62,0,0,1,1.53,1.08,4.86,4.86,0,0,1,1,1.63,5.75,5.75,0,0,1,.34,2A6.05,6.05,0,0,1,257.32,89.12Zm-1.83-3.25a3,3,0,0,0-.56-1,2.71,2.71,0,0,0-.92-.72,2.56,2.56,0,0,0-1.18-.27,2.59,2.59,0,0,0-1.18.27,2.67,2.67,0,0,0-.91.72,3.19,3.19,0,0,0-.57,1A3.53,3.53,0,0,0,250,87a4.71,4.71,0,0,0,.15,1.18,3.14,3.14,0,0,0,.5,1.08,2.55,2.55,0,0,0,.9.79,2.68,2.68,0,0,0,1.3.3,2.72,2.72,0,0,0,1.31-.3,2.55,2.55,0,0,0,.9-.79,3.32,3.32,0,0,0,.49-1.08,4.3,4.3,0,0,0,.16-1.18A3.54,3.54,0,0,0,255.49,85.87Z"/><path d="M269.83,92h-2.3l-2.37-3.92h0V92h-1.9V82.25h2.57a3.63,3.63,0,0,1,2.39.72,2.68,2.68,0,0,1,.87,2.21,3.06,3.06,0,0,1-.53,1.77,2.11,2.11,0,0,1-1.46.93Zm-4.69-5.26h.24a2.27,2.27,0,0,0,1.33-.33,1.36,1.36,0,0,0,.46-1.17,1.23,1.23,0,0,0-.46-1.13,2.37,2.37,0,0,0-1.31-.3h-.26Z"/><path d="M277,83.9v2.15h3V87.7h-3v2.64h3.14V92h-5V82.25h5V83.9Z"/><path class="cls-1" d="M46.6,37.63a27.37,27.37,0,0,1-5.19,8.6A24.72,24.72,0,0,1,33.74,52,21.88,21.88,0,0,1,15,52a24.68,24.68,0,0,1-7.66-5.78,27.37,27.37,0,0,1-5.19-8.6A29,29,0,0,1,.25,27.15,28.72,28.72,0,0,1,2.14,16.7,27.52,27.52,0,0,1,7.33,8.14,24.68,24.68,0,0,1,15,2.36,21.19,21.19,0,0,1,24.33.25a21.3,21.3,0,0,1,9.41,2.11,24.72,24.72,0,0,1,7.67,5.78A27.52,27.52,0,0,1,46.6,16.7a28.72,28.72,0,0,1,1.89,10.45A29,29,0,0,1,46.6,37.63ZM10.44,36.37a30.21,30.21,0,0,0,1.85,8.34,14.4,14.4,0,0,0,4.3,6,11.89,11.89,0,0,0,7.74,2.33,12,12,0,0,0,7.78-2.33,14.31,14.31,0,0,0,4.34-6,30.21,30.21,0,0,0,1.85-8.34c.27-3.08.41-6.16.41-9.22S38.57,21,38.3,18a30.71,30.71,0,0,0-1.85-8.34,14.22,14.22,0,0,0-4.34-6.07,12,12,0,0,0-7.78-2.34,11.84,11.84,0,0,0-7.74,2.34,14.31,14.31,0,0,0-4.3,6.07A30.71,30.71,0,0,0,10.44,18Q10,22.55,10,27.15C10,30.21,10.17,33.29,10.44,36.37Z"/><path class="cls-1" d="M61.23,60.86v6.3H65v.89H49.6v-.89h3.7v-51H49.6v-.81H61.23v3.18A8.65,8.65,0,0,1,63.94,16a8.33,8.33,0,0,1,4.55-1.11A13.55,13.55,0,0,1,75,16.37a14,14,0,0,1,4.77,4.14,19.75,19.75,0,0,1,3,6.15,26.61,26.61,0,0,1,1,7.53,26.9,26.9,0,0,1-1,7.55,19.55,19.55,0,0,1-3,6.19A14,14,0,0,1,75,52.08a13.66,13.66,0,0,1-6.49,1.52,8.08,8.08,0,0,1-4.55-1.15,9.1,9.1,0,0,1-2.71-2.63Zm6.22-45.12a5,5,0,0,0-2.37.55,6.13,6.13,0,0,0-1.77,1.41,9.49,9.49,0,0,0-1.26,1.81,14.15,14.15,0,0,0-.82,1.78V47.15a13,13,0,0,0,.82,1.78,9.56,9.56,0,0,0,1.26,1.82,6.27,6.27,0,0,0,1.77,1.4,5,5,0,0,0,2.37.56,5.62,5.62,0,0,0,4.23-1.6A9.69,9.69,0,0,0,74,46.92,27.24,27.24,0,0,0,74.9,41c.12-2.23.19-4.5.19-6.83s-.07-4.59-.19-6.8a27.15,27.15,0,0,0-.92-5.9,9.69,9.69,0,0,0-2.3-4.19,5.62,5.62,0,0,0-4.23-1.6Z"/><path class="cls-1" d="M117.62,15.37V52.19h3.7v.89h-11.7V48a10.92,10.92,0,0,1-1,2.29,7.64,7.64,0,0,1-1.71,2,8.14,8.14,0,0,1-2.55,1.37,11.35,11.35,0,0,1-3.6.52,10.83,10.83,0,0,1-8.07-3,10.45,10.45,0,0,1-3-7.67V16.25H86v-.88H97.61V45.82q0,3.41,1.41,5a4.88,4.88,0,0,0,3.85,1.59,5.12,5.12,0,0,0,3.23-1,7.29,7.29,0,0,0,2-2.37,11.24,11.24,0,0,0,1.08-2.81,18.19,18.19,0,0,0,.41-2.34V16.25h-3.71v-.88Z"/><path class="cls-1" d="M131.21,24.7a16.74,16.74,0,0,0,2.86,3.08q1.69,1.44,3.74,2.89a27.3,27.3,0,0,1,3.74,3.18,16,16,0,0,1,2.85,4A11.08,11.08,0,0,1,145.55,43a11.4,11.4,0,0,1-.81,4.26,9.66,9.66,0,0,1-2.49,3.56,12.06,12.06,0,0,1-4.18,2.41,18.15,18.15,0,0,1-6,.89,10.1,10.1,0,0,1-3.45-.6,10.38,10.38,0,0,1-3-1.59,7.93,7.93,0,0,1-2.08-2.33,5.5,5.5,0,0,1-.78-2.82,4.23,4.23,0,0,1,1-3.11,3.71,3.71,0,0,1,2.3-1.15,3.49,3.49,0,0,1,2.33.63,2.77,2.77,0,0,1,1.15,2.3,2.88,2.88,0,0,1-.33,1.41,5.54,5.54,0,0,1-.78,1.07c-.3.32-.57.64-.82,1a1.79,1.79,0,0,0-.37,1.08,3.21,3.21,0,0,0,1.15,2,5.39,5.39,0,0,0,3.67,1,6.8,6.8,0,0,0,3-.6,6.07,6.07,0,0,0,2.08-1.55,6.49,6.49,0,0,0,1.22-2.26,8.8,8.8,0,0,0,.41-2.63,6.25,6.25,0,0,0-1.15-3.71,17,17,0,0,0-2.85-3.07q-1.71-1.45-3.74-2.86a28.15,28.15,0,0,1-3.75-3.07,16.46,16.46,0,0,1-2.85-3.74,9.74,9.74,0,0,1-1.15-4.82,8.54,8.54,0,0,1,1-4.11,9.69,9.69,0,0,1,2.59-3.11,11.71,11.71,0,0,1,3.67-2,13.75,13.75,0,0,1,4.26-.66,12.27,12.27,0,0,1,4.07.59A8.65,8.65,0,0,1,141.74,17a7,7,0,0,1,1.74,2.26,6.27,6.27,0,0,1,.59,2.67,4,4,0,0,1-1,3.11,3.68,3.68,0,0,1-2.3,1.15,3.58,3.58,0,0,1-2.37-.63,2.74,2.74,0,0,1-1.19-2.3,2.63,2.63,0,0,1,.37-1.4,7,7,0,0,1,.82-1.08,11,11,0,0,0,.78-1,1.86,1.86,0,0,0,.33-1.08,2.81,2.81,0,0,0-1.07-2,4.46,4.46,0,0,0-3.15-1,5.16,5.16,0,0,0-3.75,1.48,4.88,4.88,0,0,0-1.51,3.63A6.4,6.4,0,0,0,131.21,24.7Z"/><path class="cls-2" d="M178.15,1.21l1.63,11.34h-1a30,30,0,0,0-2.45-5.26,18.06,18.06,0,0,0-2.7-3.56,4.87,4.87,0,0,0-3.52-1.63h-9.93V23.74h6.45q2.15,0,3.63-2.56a16.08,16.08,0,0,0,1.92-6.26h1.12q-.22,1.78-.45,3.48c-.1,1-.18,2-.26,3s-.11,1.89-.11,2.63v.38c0,.69,0,1.55.11,2.59s.16,2.05.26,3,.3,2.29.45,3.48h-1.12a16.08,16.08,0,0,0-1.92-6.26q-1.49-2.57-3.63-2.56h-6.45V52.19h3.71v.89H147.77v-.89h3.71V2.1h-3.71V1.21h30.38Z"/><path class="cls-2" d="M189.86,52.45A17.49,17.49,0,0,1,184.12,48a18.87,18.87,0,0,1-3.52-6.18,21.65,21.65,0,0,1-1.19-7.08,21.8,21.8,0,0,1,2.34-10.67,16.33,16.33,0,0,1,5.85-6.34,15.36,15.36,0,0,1,7.59-2.22,15.56,15.56,0,0,1,7.6,1.7,15.15,15.15,0,0,1,5.85,5.53A16.87,16.87,0,0,1,211,32V34H188.3v.74a48.86,48.86,0,0,0,.52,7.3,21.84,21.84,0,0,0,1.67,5.85,10.3,10.3,0,0,0,2.93,3.89,6.67,6.67,0,0,0,4.29,1.41,10.64,10.64,0,0,0,4.08-.74,15.48,15.48,0,0,0,3-1.63,18,18,0,0,0,2.56-2.37l.74.88-.78.82a12.23,12.23,0,0,1-2,1.63,15.84,15.84,0,0,1-3.22,1.59,12.38,12.38,0,0,1-4.34.71A17.67,17.67,0,0,1,189.86,52.45Zm2.41-34.56A9.54,9.54,0,0,0,190,21.48a25.23,25.23,0,0,0-1.26,5.26,57.49,57.49,0,0,0-.48,6.41h14.45V32a41.29,41.29,0,0,0-.41-6.07A19.52,19.52,0,0,0,201.05,21a9.07,9.07,0,0,0-2.23-3.26,4.88,4.88,0,0,0-6.55.15Z"/><path class="cls-2" d="M221.61,24.7a16.68,16.68,0,0,0,2.85,3.08c1.14,1,2.38,1.92,3.74,2.89A27.39,27.39,0,0,1,232,33.85a16.51,16.51,0,0,1,2.85,4A11.2,11.2,0,0,1,236,43a11.41,11.41,0,0,1-.82,4.26,9.52,9.52,0,0,1-2.48,3.56,12.11,12.11,0,0,1-4.19,2.41,18.15,18.15,0,0,1-6,.89,10.09,10.09,0,0,1-3.44-.6,10.43,10.43,0,0,1-3-1.59A8,8,0,0,1,214,49.6a5.5,5.5,0,0,1-.78-2.82,4.19,4.19,0,0,1,1-3.11,3.68,3.68,0,0,1,2.29-1.15,3.53,3.53,0,0,1,2.34.63,2.95,2.95,0,0,1,.81,3.71,6,6,0,0,1-.77,1.07c-.3.32-.57.64-.82,1a1.72,1.72,0,0,0-.37,1.08,3.16,3.16,0,0,0,1.15,2,5.36,5.36,0,0,0,3.66,1,6.84,6.84,0,0,0,3-.6,5.93,5.93,0,0,0,2.07-1.55,6.51,6.51,0,0,0,1.23-2.26,8.79,8.79,0,0,0,.4-2.63,6.32,6.32,0,0,0-1.14-3.71,16.7,16.7,0,0,0-2.86-3.07,45.18,45.18,0,0,0-3.74-2.86,27.43,27.43,0,0,1-3.74-3.07,15.91,15.91,0,0,1-2.85-3.74,9.74,9.74,0,0,1-1.15-4.82,8.65,8.65,0,0,1,1-4.11,9.82,9.82,0,0,1,2.59-3.11,11.71,11.71,0,0,1,3.67-2,13.75,13.75,0,0,1,4.26-.66,12.37,12.37,0,0,1,4.08.59A8.7,8.7,0,0,1,232.13,17a6.77,6.77,0,0,1,1.74,2.26,6.13,6.13,0,0,1,.6,2.67,4.05,4.05,0,0,1-1,3.11,3.66,3.66,0,0,1-2.3,1.15,3.58,3.58,0,0,1-2.37-.63,2.73,2.73,0,0,1-1.18-2.3,2.54,2.54,0,0,1,.37-1.4,7.61,7.61,0,0,1,.81-1.08,8.22,8.22,0,0,0,.78-1,1.87,1.87,0,0,0,.34-1.08,2.79,2.79,0,0,0-1.08-2,4.46,4.46,0,0,0-3.15-1A5.14,5.14,0,0,0,222,17.29a4.89,4.89,0,0,0-1.52,3.63A6.34,6.34,0,0,0,221.61,24.7Z"/><path class="cls-2" d="M248.84,6.92v8.45h6.67v.88h-6.67V44.78a16.65,16.65,0,0,0,.81,6.23,2.67,2.67,0,0,0,2.52,1.77,4.38,4.38,0,0,0,1.93-.51,4.68,4.68,0,0,0,1-.45V53c-.4.14-.84.29-1.34.44s-.87.2-1.44.3a10.58,10.58,0,0,1-1.82.14,11.73,11.73,0,0,1-3.85-.62,7.25,7.25,0,0,1-3-2,10.06,10.06,0,0,1-2-3.71,18.65,18.65,0,0,1-.74-5.63V16.25H237.8v-.88h1.41a6.14,6.14,0,0,0,4-1.34,13.09,13.09,0,0,0,2.71-2.89,18.51,18.51,0,0,0,2.22-4.22Z"/><path class="cls-2" d="M264.4,53.19a10,10,0,0,1-3.26-1.55,8.37,8.37,0,0,1-2.45-2.86,9.23,9.23,0,0,1-1-4.44,8.54,8.54,0,0,1,1.41-5,13,13,0,0,1,3.52-3.45,25.93,25.93,0,0,1,4.55-2.41c1.63-.66,3.15-1.32,4.56-2a19.77,19.77,0,0,0,3.52-2A3,3,0,0,0,276.7,27V23.52A9.57,9.57,0,0,0,275.36,18a4.53,4.53,0,0,0-4-1.92,7.26,7.26,0,0,0-4.81,1.37A3.64,3.64,0,0,0,264.92,20a1.31,1.31,0,0,0,.59,1.11,13.35,13.35,0,0,0,1.33.89,5.71,5.71,0,0,1,1.34,1.12,2.7,2.7,0,0,1,.59,1.85,3,3,0,0,1-1.11,2.44,3.31,3.31,0,0,1-2.45.78A3.78,3.78,0,0,1,262.77,27a5.13,5.13,0,0,1-1.11-3.67,6.86,6.86,0,0,1,.7-3,8.38,8.38,0,0,1,2.08-2.7,11,11,0,0,1,3.33-2,12.07,12.07,0,0,1,4.41-.77,16.74,16.74,0,0,1,5,.7,11.1,11.1,0,0,1,3.93,2.11,9.56,9.56,0,0,1,2.59,3.56,12.4,12.4,0,0,1,.93,5V52.27h3.7v.81H276.7v-5a9.08,9.08,0,0,1-1,2,6.82,6.82,0,0,1-1.74,1.78,9.06,9.06,0,0,1-2.59,1.26,12,12,0,0,1-3.6.48A12.81,12.81,0,0,1,264.4,53.19Zm12.3-23.38a7.29,7.29,0,0,1-2.45,1.52,17.21,17.21,0,0,0-3.63,2.23,13.69,13.69,0,0,0-3.3,3.92,13.37,13.37,0,0,0-1.44,6.71,12.89,12.89,0,0,0,.45,3.7,7.27,7.27,0,0,0,1.11,2.37A3.67,3.67,0,0,0,269,51.52a4.23,4.23,0,0,0,1.74.38,4.18,4.18,0,0,0,2.7-.93,7.53,7.53,0,0,0,1.89-2.26,10.59,10.59,0,0,0,1.07-2.82,11.53,11.53,0,0,0,.34-2.59Z"/></g></g></svg>