<svg xmlns="http://www.w3.org/2000/svg" viewBox="-2.17 1.92 47.19 47.19">
  <path fill="#c6a1cb" d="M35.91,10.1h-.09c-.64-.07-1.23-.35-1.69-.8l-.33-.34c-.46-.45-.75-1.05-.81-1.69v-.16c-.06-.49-.09-.97-.1-1.46h-.12c0,.49-.04.97-.09,1.46v.16c-.07.64-.36,1.24-.81,1.69l-.34.33c-.46.46-1.05.74-1.69.81h-.08c-.48.05-.97.08-1.45.1v.11c.48,0,.97.04,1.45.1h.08c.64.07,1.24.36,1.69.81l.35.36c.46.46.74,1.05.81,1.69h0c.05.49.08.97.1,1.46h.11c0-.49.05-.97.1-1.46h0c.07-.64.36-1.24.81-1.69l.35-.35c.46-.46,1.05-.74,1.69-.81h.08c.48-.05.97-.08,1.45-.09v-.12c-.5-.03-1-.06-1.49-.12Z"/>
  <path fill="#5c2d8c" d="M26.76,6.86h-.06c-.46-.05-.89-.25-1.22-.58l-.24-.24c-.33-.33-.53-.75-.58-1.21v-.11c-.04-.35-.06-.7-.07-1.05h-.09c0,.35-.03.7-.07,1.05v.11c-.05.46-.26.88-.58,1.21l-.24.24c-.33.33-.76.53-1.22.58h-.06c-.35.04-.7.06-1.05.07v.08c.34,0,.7.04,1.05.08h.06c.46.05.89.25,1.22.58l.25.26c.33.33.53.76.58,1.22h0c.04.34.06.7.08,1.05h.08c0-.35,0-.7.07-1.05h0c.05-.46.26-.89.58-1.22l.26-.25c.33-.33.76-.53,1.22-.58h.06c.34-.04.7-.06,1.04-.07v-.09c-.34-.01-.72-.04-1.07-.08Z"/>
  <path fill="#5c2d8c" d="M20.22,14.43c2.92,0,5.5.64,7.72,1.92,2.22,1.28,3.94,3.12,5.17,5.53,1.22,2.4,1.83,5.32,1.83,8.75s-.63,6.26-1.88,8.77c-1.25,2.51-3,4.46-5.23,5.86s-4.79,2.1-7.65,2.1-5.53-.64-7.74-1.92c-2.21-1.28-3.92-3.13-5.14-5.55-1.22-2.42-1.83-5.32-1.83-8.73s.63-6.26,1.9-8.77c1.27-2.51,3-4.46,5.21-5.86,2.21-1.4,4.76-2.1,7.65-2.1ZM20.04,15.24c-1.85,0-3.46.67-4.83,2.01-1.37,1.34-2.43,3.19-3.18,5.55-.75,2.36-1.12,5.09-1.12,8.19s.42,5.91,1.25,8.25c.83,2.34,1.97,4.15,3.4,5.41,1.43,1.27,3.03,1.9,4.79,1.9,1.85,0,3.45-.67,4.81-2.01,1.36-1.34,2.42-3.2,3.18-5.57.76-2.37,1.14-5.09,1.14-8.17s-.42-5.95-1.28-8.28c-.85-2.33-1.98-4.12-3.4-5.39-1.42-1.27-3.01-1.9-4.77-1.9Z"/>
  <path fill="#c6a1cb" d="M18.1,23.64c-.55,2.05-.82,4.44-.82,7.16s.31,5.18.93,7.22c.61,2.05.6,2.29,2.33,4.95.52.8,2.23,2.08,2.23,2.08-1.62-.19-3.08-.72-4.37-1.61-1.63-1.12-2.9-2.74-3.8-4.85s-1.36-4.65-1.36-7.63.47-5.48,1.41-7.67c.94-2.2,2.22-3.91,3.85-5.13,1.26-.96,2.69-1.54,4.27-1.74,0,0-.88.51-1.59,1.29-1.91,2.08-2.52,3.86-3.08,5.93Z"/>
</svg>
