<?xml version="1.0" encoding="UTF-8"?>
<svg xmlns="http://www.w3.org/2000/svg" version="1.1" xmlns:xlink="http://www.w3.org/1999/xlink" viewBox="0 0 419.53 595.28">
  <!-- Generator: Adobe Illustrator 29.8.3, SVG Export Plug-In . SVG Version: 2.1.1 Build 3)  -->
  <defs>
    <style>
      .st0 {
        opacity: .85;
      }

      .st1 {
        stroke: #6fc7b0;
      }

      .st1, .st2, .st3, .st4, .st5 {
        fill: none;
      }

      .st1, .st2, .st4, .st5 {
        stroke-miterlimit: 10;
      }

      .st6 {
        font-size: 15.98px;
      }

      .st6, .st7, .st8, .st9, .st10, .st11, .st12, .st13 {
        fill: #fff;
      }

      .st6, .st9, .st11, .st14 {
        font-family: CaviarDreams, CaviarDreams;
      }

      .st15 {
        opacity: .41;
      }

      .st15, .st16 {
        fill: #6fc7b0;
      }

      .st17 {
        fill: #f0d497;
      }

      .st18 {
        fill: #7bbc7e;
      }

      .st2 {
        stroke: #fff;
      }

      .st4 {
        stroke: #f096b1;
      }

      .st8 {
        font-size: 93.48px;
      }

      .st8, .st10 {
        font-family: Yellowtail, 'EOFCC K+ Yellowtail';
      }

      .st9 {
        font-size: 15px;
      }

      .st19 {
        fill: #f096b1;
      }

      .st10 {
        font-size: 29.13px;
      }

      .st5 {
        stroke: #f0d497;
      }

      .st11 {
        font-size: 13.33px;
      }

      .st12 {
        font-size: 12.28px;
      }

      .st20 {
        fill: #00a79d;
      }

      .st21 {
        font-family: Wingdings-Regular, Wingdings;
      }

      .st13 {
        font-family: CaviarDreams-Bold, TVQOEG+CaviarDreams-Bold;
        font-size: 24.32px;
        font-weight: 700;
      }

      .st22 {
        clip-path: url(#clippath);
      }
    </style>
    <clipPath id="clippath">
      <rect class="st3" x="-8.5" y="-8.5" width="436.54" height="612.29"/>
    </clipPath>
  </defs>
  <g id="image">
    <g class="st22">
      <image width="800" height="1000" transform="translate(-34.88 -8.5) scale(.61)" xlink:href="C:\Users\T480\Downloads\4638.jpg"/>
    </g>
  </g>
  <g id="Background">
    <g class="st0">
      <rect class="st20" x="-8.5" y="-8.5" width="436.54" height="612.28"/>
    </g>
    <g>
      <rect class="st18" x="0" y="388.5" width="52.77" height="52.77"/>
      <rect class="st17" x="348.62" y="524.8" width="52.77" height="52.77"/>
      <rect class="st16" x="366.09" y="0" width="53.44" height="30.54"/>
      <rect class="st2" x="39.07" y="428.23" width="26.09" height="26.09"/>
      <rect class="st1" x="335.58" y="511.75" width="26.09" height="26.09"/>
      <rect class="st4" x="385.57" y="24.62" width="26.09" height="26.09"/>
    </g>
    <rect class="st15" x="102.92" y="83.03" width="213.69" height="213.69"/>
    <g>
      <polyline class="st2" points="327.63 218.12 327.63 307.74 109.88 307.74"/>
      <line class="st2" x1="327.63" y1="90.65" x2="327.63" y2="170.89"/>
      <polyline class="st2" points="91.9 229.83 91.9 72 308.65 72"/>
    </g>
    <g>
      <line class="st5" x1="99.84" y1="263.83" x2="99.84" y2="330.42"/>
      <path class="st7" d="M91.09,240.62c-1.04,4.08-2.54,10.05-4.26,17.21-1.96,8.16,2.32,17.4,13.01,17.4,9.97,0,14.36-8.03,13.32-15.72-8.8-11.09-17.02-16.44-22.08-18.89Z"/>
      <path class="st19" d="M108.59,240.62c1.04,4.08,2.54,10.05,4.26,17.21,1.96,8.16-2.32,17.4-13.01,17.4-4.98,0-8.57-2.01-10.79-4.97-3.38-4.53-2.61-10.94,1.18-15.14,7.36-8.16,14.03-12.39,18.36-14.5Z"/>
    </g>
    <g>
      <line class="st5" x1="67.54" y1="294.16" x2="67.54" y2="330.42"/>
      <path class="st7" d="M58.79,270.95c-1.04,4.08-2.54,10.05-4.26,17.21-1.96,8.16,2.32,17.4,13.01,17.4,9.97,0,14.36-8.03,13.32-15.72-8.8-11.09-17.02-16.44-22.08-18.89Z"/>
      <path class="st17" d="M76.29,270.95c1.04,4.08,2.54,10.05,4.26,17.21,1.96,8.16-2.32,17.4-13.01,17.4-4.98,0-8.57-2.01-10.79-4.97-3.38-4.53-2.61-10.94,1.18-15.14,7.36-8.16,14.03-12.39,18.36-14.5Z"/>
    </g>
    <path class="st19" d="M277.8,110.12l-3.19-3.19c-1.76-1.76-4.61-1.76-6.38,0h0c-1.76,1.76-1.76,4.61,0,6.38l9.56,9.56,9.56-9.56c1.76-1.76,1.76-4.61,0-6.38h0c-1.76-1.76-4.61-1.76-6.38,0l-3.19,3.19Z"/>
    <path class="st17" d="M327.63,66.24l-4.46-4.46c-2.46-2.46-6.45-2.46-8.92,0h0c-2.46,2.46-2.46,6.45,0,8.92l13.37,13.37,13.37-13.37c2.46-2.46,2.46-6.45,0-8.92h0c-2.46-2.46-6.45-2.46-8.92,0l-4.46,4.46Z"/>
    <path class="st16" d="M315.9,192.14l-6.5-6.5c-3.59-3.59-9.4-3.59-12.99,0h0c-3.59,3.59-3.59,9.4,0,12.99l19.49,19.49,19.49-19.49c3.59-3.59,3.59-9.4,0-12.99h0c-3.59-3.59-9.4-3.59-12.99,0l-6.5,6.5Z"/>
    <polyline class="st1" points="115.96 330.42 107.88 322.34 99.8 330.42 91.72 322.34 83.64 330.42 75.55 322.34 67.47 330.42 59.39 322.34 51.31 330.42 43.23 322.34 35.15 330.42"/>
    <g>
      <line class="st5" x1="352.5" y1="294.16" x2="352.5" y2="330.42"/>
      <path class="st7" d="M343.75,270.95c-1.04,4.08-2.54,10.05-4.26,17.21-1.96,8.16,2.32,17.4,13.01,17.4,9.97,0,14.36-8.03,13.32-15.72-8.8-11.09-17.02-16.44-22.08-18.89Z"/>
      <path class="st18" d="M361.25,270.95c1.04,4.08,2.54,10.05,4.26,17.21,1.96,8.16-2.32,17.4-13.01,17.4-4.98,0-8.57-2.01-10.79-4.97-3.38-4.53-2.61-10.94,1.18-15.14,7.36-8.16,14.03-12.39,18.36-14.5Z"/>
    </g>
    <polyline class="st1" points="384.83 330.42 376.75 322.34 368.66 330.42 360.58 322.34 352.5 330.42 344.42 322.34 336.34 330.42 328.26 322.34 320.17 330.42"/>
  </g>
  <g id="Event_Title">
    <text class="st8" transform="translate(121.63 176.51)"><tspan x="0" y="0">Save</tspan></text>
    <text class="st8" transform="translate(117.88 263.25)"><tspan x="0" y="0">Date</tspan></text>
    <text class="st10" transform="translate(206.87 208.56)"><tspan x="0" y="0">the</tspan></text>
  </g>
  <g id="Intro">
    <text class="st9" transform="translate(151.68 359.81)"><tspan x="0" y="0">for the wedding of</tspan></text>
  </g>
  <g id="Names">
    <text class="st13" transform="translate(110.37 389.15)"><tspan x="0" y="0">ROMEO &amp; JULIET</tspan></text>
  </g>
  <g id="Date">
    <text class="st6" transform="translate(181.86 438.76)"><tspan x="0" y="0">18.08.18</tspan></text>
  </g>
  <g id="Time">
    <text class="st6" transform="translate(184.57 487.04)"><tspan x="0" y="0">at 5 pm</tspan></text>
  </g>
  <g id="Venue">
    <text class="st6" transform="translate(134.53 463.73)"><tspan x="0" y="0">The Royal Palace Hotel</tspan></text>
  </g>
  <g id="Message">
    <text style="font-family: CaviarDreams, CaviarDreams; font-size: 10px; fill: #fff;" transform="translate(209.76 499)" text-anchor="middle"><tspan x="0" y="0">Together with their families they invite</tspan></text>
    <text style="font-family: CaviarDreams, CaviarDreams; font-size: 10px; fill: #fff;" transform="translate(209.76 512)" text-anchor="middle"><tspan x="0" y="0">you to celebrate their special day.</tspan></text>
  </g>
  <g id="Attribution">
    <text style="font-family: CaviarDreams, CaviarDreams; font-size: 9px; fill: rgba(255,255,255,0.6);" transform="translate(209.76 522)" text-anchor="middle"><tspan x="0" y="0">— Romeo &amp; Juliet</tspan></text>
  </g>
  <g id="Dress_code">
    <g>
      <text class="st11" transform="translate(135.78 538.65)"><tspan x="0" y="0">Dress Code</tspan></text>
      <g>
        <circle class="st17" cx="211.54" cy="534.74" r="8.22"/>
        <circle class="st19" cx="231.21" cy="534.74" r="8.22"/>
        <circle class="st18" cx="250.88" cy="534.74" r="8.22"/>
      </g>
    </g>
  </g>
  <g id="Rsvp">
    <text class="st12" transform="translate(145.98 569.59)"><tspan class="st14" x="0" y="0">RSVP </tspan><tspan class="st21" x="28.64" y="0"></tspan><tspan class="st14" x="34.26" y="0" xml:space="preserve"> +255 795 682 205</tspan></text>
  </g>
</svg>