<svg fill="none" height="100%" width="100%" viewBox="0 0 500 500" xmlns:xlink="http://www.w3.org/1999/xlink" xmlns="http://www.w3.org/2000/svg"><defs><linearGradient id="i0" gradientUnits="userSpaceOnUse" spreadMethod="pad" x2="0" y2="16.6" x1="-0.4" y1="-16"><stop stop-opacity="0" offset="0%" stop-color="#ffffff" /><stop stop-opacity="0.499" offset="49.9%" stop-color="#ffffff" /><stop stop-opacity="0.5" offset="50%" stop-color="#ffffff" /><stop stop-opacity="0.998" offset="99.8%" stop-color="#ffffff" /><stop offset="100%" stop-color="#ffffff" /></linearGradient><linearGradient id="i1" gradientUnits="userSpaceOnUse" spreadMethod="pad" x2="0" y2="16.6" x1="-0.4" y1="-16"><stop stop-opacity="0" offset="0%" stop-color="#ffffff" /><stop stop-opacity="0.499" offset="49.9%" stop-color="#ffffff" /><stop stop-opacity="0.5" offset="50%" stop-color="#ffffff" /><stop stop-opacity="0.998" offset="99.8%" stop-color="#ffffff" /><stop offset="100%" stop-color="#ffffff" /></linearGradient></defs><g transform="matrix(2.5,0,0,2.5,90.174,88.764)" id="i2"><g id="i3" transform="matrix(1,0,0,1,25.989,26.191)"><path fill="#18191a" fill-rule="evenodd" d="M12.184,-12.184C12.184,-12.184,-12.184,-12.184,-12.184,-12.184C-12.184,-12.184,-12.184,12.184,-12.184,12.184C-12.184,12.184,12.184,12.184,12.184,12.184C12.184,12.184,12.184,-12.184,12.184,-12.184ZM8.459,8.46C8.459,8.46,-8.46,8.46,-8.46,8.46C-8.46,8.46,-8.46,-8.46,-8.46,-8.46C-8.46,-8.46,8.459,-8.46,8.459,-8.46C8.459,-8.46,8.459,8.46,8.459,8.46Z" /></g><g id="i4" transform="matrix(1,0,0,1,25.988,26.192)"><path fill="#18191a" d="M4.667,-4.668C4.667,-4.668,-4.667,-4.668,-4.667,-4.668C-4.667,-4.668,-4.667,4.668,-4.667,4.668C-4.667,4.668,4.667,4.668,4.667,4.668C4.667,4.668,4.667,-4.668,4.667,-4.668Z" /></g><g id="i5" transform="matrix(1,0,0,1,101.582,26.191)"><path fill="#18191a" fill-rule="evenodd" d="M-12.185,12.185C-12.185,12.185,12.184,12.185,12.184,12.185C12.184,12.185,12.184,-12.185,12.184,-12.185C12.184,-12.185,-12.185,-12.185,-12.185,-12.185C-12.185,-12.185,-12.185,12.185,-12.185,12.185ZM8.46,8.46C8.46,8.46,-8.46,8.46,-8.46,8.46C-8.46,8.46,-8.46,-8.46,-8.46,-8.46C-8.46,-8.46,8.46,-8.46,8.46,-8.46C8.46,-8.46,8.46,8.46,8.46,8.46Z" /></g><g id="i6" transform="matrix(1,0,0,1,101.582,26.192)"><path fill="#18191a" d="M4.668,-4.668C4.668,-4.668,-4.668,-4.668,-4.668,-4.668C-4.668,-4.668,-4.668,4.668,-4.668,4.668C-4.668,4.668,4.668,4.668,4.668,4.668C4.668,4.668,4.668,-4.668,4.668,-4.668Z" /></g><g id="i7" transform="matrix(1,0,0,1,26.002,101.776)"><path fill="#18191a" fill-rule="evenodd" d="M-12.184,12.185C-12.184,12.185,12.184,12.185,12.184,12.185C12.184,12.185,12.184,-12.185,12.184,-12.185C12.184,-12.185,-12.184,-12.185,-12.184,-12.185C-12.184,-12.185,-12.184,12.185,-12.184,12.185ZM-8.46,-8.46C-8.46,-8.46,8.46,-8.46,8.46,-8.46C8.46,-8.46,8.46,8.46,8.46,8.46C8.46,8.46,-8.46,8.46,-8.46,8.46C-8.46,8.46,-8.46,-8.46,-8.46,-8.46Z" /></g><g id="i8" transform="matrix(1,0,0,1,26.002,101.777)"><path fill="#18191a" d="M-4.668,4.668C-4.668,4.668,4.668,4.668,4.668,4.668C4.668,4.668,4.668,-4.668,4.668,-4.668C4.668,-4.668,-4.668,-4.668,-4.668,-4.668C-4.668,-4.668,-4.668,4.668,-4.668,4.668Z" /></g><g id="i9" transform="matrix(1,0,0,1,51.782,16.006)"><path fill="#18191a" d="M-1.999,1.999C-1.999,1.999,1.999,1.999,1.999,1.999C1.999,1.999,1.999,-1.999,1.999,-1.999C1.999,-1.999,-1.999,-1.999,-1.999,-1.999C-1.999,-1.999,-1.999,1.999,-1.999,1.999Z" /></g><g id="i10" transform="matrix(1,0,0,1,71.87,30.522)"><path fill="#18191a" d="M-5.997,0.001C-5.997,0.001,-5.997,3.999,-5.997,3.999C-5.997,3.999,-2,3.999,-2,3.999C-2,3.999,-2,0.001,-2,0.001C-2,0.001,-2,-3.997,-2,-3.997C-2,-3.997,1.997,-3.997,1.997,-3.997C1.997,-3.997,5.996,-3.997,5.996,-3.997C5.996,-3.997,5.996,0.001,5.996,0.001C5.996,0.001,1.997,0.001,1.997,0.001C1.997,0.001,1.997,3.999,1.997,3.999C1.997,3.999,1.997,7.995,1.997,7.995C1.997,7.995,-2,7.995,-2,7.995C-2,7.995,-5.997,7.995,-5.997,7.995C-5.997,7.995,-5.997,3.999,-5.997,3.999C-5.997,3.999,-9.994,3.999,-9.994,3.999C-9.994,3.999,-9.994,7.995,-9.994,7.995C-9.994,7.995,-13.992,7.995,-13.992,7.995C-13.992,7.995,-13.992,11.993,-13.992,11.993C-13.992,11.993,-9.994,11.993,-9.994,11.993C-9.994,11.993,-5.997,11.993,-5.997,11.993C-5.997,11.993,-9.994,11.993,-9.994,11.993C-9.994,11.993,-9.994,15.991,-9.994,15.991C-9.994,15.991,-5.997,15.991,-5.997,15.991C-5.997,15.991,-1.999,15.991,-1.999,15.991C-1.999,15.991,-1.999,11.993,-1.999,11.993C-1.999,11.993,1.997,11.993,1.997,11.993C1.997,11.993,1.997,15.991,1.997,15.991C1.997,15.991,5.996,15.991,5.996,15.991C5.996,15.991,9.994,15.991,9.994,15.991C9.994,15.991,13.992,15.991,13.992,15.991C13.992,15.991,13.992,11.993,13.992,11.993C13.992,11.993,9.994,11.993,9.994,11.993C9.994,11.993,9.994,7.995,9.994,7.995C9.994,7.995,9.994,3.999,9.994,3.999C9.994,3.999,13.992,3.999,13.992,3.999C13.992,3.999,13.992,0.001,13.992,0.001C13.992,0.001,9.994,0.001,9.994,0.001C9.994,0.001,9.994,-3.997,9.994,-3.997C9.994,-3.997,13.992,-3.997,13.992,-3.997C13.992,-3.997,13.992,-7.995,13.992,-7.995C13.992,-7.995,13.992,-11.993,13.992,-11.993C13.992,-11.993,13.992,-15.991,13.992,-15.991C13.992,-15.991,9.994,-15.991,9.994,-15.991C9.994,-15.991,9.994,-11.993,9.994,-11.993C9.994,-11.993,9.994,-7.995,9.994,-7.995C9.994,-7.995,5.996,-7.995,5.996,-7.995C5.996,-7.995,5.996,-11.993,5.996,-11.993C5.996,-11.993,5.996,-15.991,5.996,-15.991C5.996,-15.991,1.997,-15.991,1.997,-15.991C1.997,-15.991,-2,-15.991,-2,-15.991C-2,-15.991,-2,-11.993,-2,-11.993C-2,-11.993,-2,-7.995,-2,-7.995C-2,-7.995,-5.997,-7.995,-5.997,-7.995C-5.997,-7.995,-5.997,-3.997,-5.997,-3.997C-5.997,-3.997,-9.994,-3.997,-9.994,-3.997C-9.994,-3.997,-9.994,0.001,-9.994,0.001C-9.994,0.001,-5.997,0.001,-5.997,0.001Z" /></g><g id="i11" transform="matrix(1,0,0,1,53.881,30.522)"><path fill="#18191a" fill-rule="evenodd" d="M-3.998,15.99C-3.998,15.99,0,15.99,0,15.99C0,15.99,3.997,15.99,3.997,15.99C3.997,15.99,3.997,11.993,3.997,11.993C3.997,11.993,0,11.993,0,11.993C0,11.993,0,7.995,0,7.995C0,7.995,0,3.997,0,3.997C0,3.997,3.997,3.997,3.997,3.997C3.997,3.997,7.996,3.997,7.996,3.997C7.996,3.997,7.996,0.001,7.996,0.001C7.996,0.001,3.997,0.001,3.997,0.001C3.997,0.001,3.997,-3.997,3.997,-3.997C3.997,-3.997,7.996,-3.997,7.996,-3.997C7.996,-3.997,7.996,-7.994,7.996,-7.994C7.996,-7.994,7.995,-7.994,7.995,-7.994C7.995,-7.994,7.995,-11.992,7.995,-11.992C7.995,-11.992,7.996,-11.992,7.996,-11.992C7.996,-11.992,11.993,-11.992,11.993,-11.992C11.993,-11.992,11.993,-15.99,11.993,-15.99C11.993,-15.99,7.996,-15.99,7.996,-15.99C7.996,-15.99,3.997,-15.99,3.997,-15.99C3.997,-15.99,3.997,-11.992,3.997,-11.992C3.997,-11.992,3.997,-7.994,3.997,-7.994C3.997,-7.994,3.997,-11.992,3.997,-11.992C3.997,-11.992,0,-11.992,0,-11.992C0,-11.992,0,-7.994,0,-7.994C0,-7.994,-3.998,-7.994,-3.998,-7.994C-3.998,-7.994,-7.995,-7.994,-7.995,-7.994C-7.995,-7.994,-7.995,-11.992,-7.995,-11.992C-7.995,-11.992,-7.995,-15.99,-7.995,-15.99C-7.995,-15.99,-11.993,-15.99,-11.993,-15.99C-11.993,-15.99,-11.993,-11.992,-11.993,-11.992C-11.993,-11.992,-11.993,-7.994,-11.993,-7.994C-11.993,-7.994,-11.993,-3.997,-11.993,-3.997C-11.993,-3.997,-7.995,-3.997,-7.995,-3.997C-7.995,-3.997,-7.995,-0.001,-7.995,-0.001C-7.995,-0.001,-11.993,-0.001,-11.993,-0.001C-11.993,-0.001,-11.993,3.997,-11.993,3.997C-11.993,3.997,-7.995,3.997,-7.995,3.997C-7.995,3.997,-7.995,7.995,-7.995,7.995C-7.995,7.995,-11.993,7.995,-11.993,7.995C-11.993,7.995,-11.993,11.993,-11.993,11.993C-11.993,11.993,-7.995,11.993,-7.995,11.993C-7.995,11.993,-11.993,11.993,-11.993,11.993C-11.993,11.993,-11.993,15.99,-11.993,15.99C-11.993,15.99,-7.995,15.99,-7.995,15.99C-7.995,15.99,-3.998,15.99,-3.998,15.99ZM-7.995,0.001C-7.995,0.001,-3.998,0.001,-3.998,0.001C-3.998,0.001,-3.998,3.999,-3.998,3.999C-3.998,3.999,-7.995,3.999,-7.995,3.999C-7.995,3.999,-7.995,0.001,-7.995,0.001Z" /></g><g id="i12" transform="matrix(1,0,0,1,59.777,53.989)"><path fill="#18191a" d="M1.999,-3.997C1.999,-3.997,-1.999,-3.997,-1.999,-3.997C-1.999,-3.997,-1.999,0,-1.999,0C-1.999,0,-1.999,3.997,-1.999,3.997C-1.999,3.997,1.999,3.997,1.999,3.997C1.999,3.997,1.999,0,1.999,0C1.999,0,1.999,-3.997,1.999,-3.997Z" /></g><g id="i13" transform="matrix(1,0,0,1,51.782,71.978)"><path fill="#18191a" d="M1.999,-1.999C1.999,-1.999,-1.999,-1.999,-1.999,-1.999C-1.999,-1.999,-1.999,1.999,-1.999,1.999C-1.999,1.999,1.999,1.999,1.999,1.999C1.999,1.999,1.999,-1.999,1.999,-1.999Z" /></g><g id="i14" transform="matrix(1,0,0,1,59.778,71.978)"><path fill="#18191a" d="M1.999,-1.999C1.999,-1.999,-1.999,-1.999,-1.999,-1.999C-1.999,-1.999,-1.999,1.999,-1.999,1.999C-1.999,1.999,1.999,1.999,1.999,1.999C1.999,1.999,1.999,-1.999,1.999,-1.999Z" /></g><g id="i15" transform="matrix(1,0,0,1,35.791,75.977)"><path fill="#18191a" d="M21.987,-2C21.987,-2,17.99,-2,17.99,-2C17.99,-2,17.99,1.998,17.99,1.998C17.99,1.998,13.992,1.998,13.992,1.998C13.992,1.998,13.992,-2,13.992,-2C13.992,-2,9.995,-2,9.995,-2C9.995,-2,9.995,1.998,9.995,1.998C9.995,1.998,5.997,1.998,5.997,1.998C5.997,1.998,5.997,-2,5.997,-2C5.997,-2,9.995,-2,9.995,-2C9.995,-2,9.995,-5.997,9.995,-5.997C9.995,-5.997,5.997,-5.997,5.997,-5.997C5.997,-5.997,1.999,-5.997,1.999,-5.997C1.999,-5.997,1.999,-2,1.999,-2C1.999,-2,-1.998,-2,-1.998,-2C-1.998,-2,-1.998,1.998,-1.998,1.998C-1.998,1.998,-5.996,1.998,-5.996,1.998C-5.996,1.998,-5.996,-2,-5.996,-2C-5.996,-2,-9.993,-2,-9.993,-2C-9.993,-2,-9.993,-5.997,-9.993,-5.997C-9.993,-5.997,-9.993,-9.994,-9.993,-9.994C-9.993,-9.994,-13.992,-9.994,-13.992,-9.994C-13.992,-9.994,-13.992,-5.997,-13.992,-5.997C-13.992,-5.997,-13.992,-2,-13.992,-2C-13.992,-2,-17.99,-2,-17.99,-2C-17.99,-2,-21.987,-2,-21.987,-2C-21.987,-2,-21.987,1.998,-21.987,1.998C-21.987,1.998,-21.987,5.996,-21.987,5.996C-21.987,5.996,-21.987,5.997,-21.987,5.997C-21.987,5.997,-21.987,9.994,-21.987,9.994C-21.987,9.994,-17.99,9.994,-17.99,9.994C-17.99,9.994,-17.99,5.997,-17.99,5.997C-17.99,5.997,-13.992,5.997,-13.992,5.997C-13.992,5.997,-9.993,5.997,-9.993,5.997C-9.993,5.997,-9.993,9.994,-9.993,9.994C-9.993,9.994,-5.996,9.994,-5.996,9.994C-5.996,9.994,-1.998,9.994,-1.998,9.994C-1.998,9.994,-1.998,5.997,-1.998,5.997C-1.998,5.997,1.999,5.997,1.999,5.997C1.999,5.997,5.997,5.997,5.997,5.997C5.997,5.997,5.997,9.994,5.997,9.994C5.997,9.994,9.995,9.994,9.995,9.994C9.995,9.994,9.995,5.997,9.995,5.997C9.995,5.997,13.992,5.997,13.992,5.997C13.992,5.997,17.99,5.997,17.99,5.997C17.99,5.997,21.987,5.997,21.987,5.997C21.987,5.997,21.987,1.998,21.987,1.998C21.987,1.998,21.987,-2,21.987,-2Z" /></g><g id="i16" transform="matrix(1,0,0,1,23.8,44.175)"><path fill="#18191a" d="M2,2C2,2,-2,2,-2,2C-2,2,-2,-2,-2,-2C-2,-2,2,-2,2,-2C2,-2,2,2,2,2Z" /></g><g id="i17" transform="matrix(1,0,0,1,31.794,44.175)"><path fill="#18191a" d="M1.995,2C1.995,2,-1.995,2,-1.995,2C-1.995,2,-1.995,-2,-1.995,-2C-1.995,-2,1.995,-2,1.995,-2C1.995,-2,1.995,2,1.995,2Z" /></g><g id="i18" transform="matrix(1,0,0,1,31.794,51.992)"><path fill="#18191a" d="M17.985,-5.995C17.985,-5.995,17.985,5.995,17.985,5.995C17.985,5.995,1.995,5.995,1.995,5.995C1.995,5.995,1.995,1.995,1.995,1.995C1.995,1.995,-5.994,1.995,-5.994,1.995C-5.994,1.995,-5.994,-2.005,-5.994,-2.005C-5.994,-2.005,-13.994,-2.005,-13.994,-2.005C-13.994,-2.005,-13.994,1.995,-13.994,1.995C-13.994,1.995,-17.985,1.995,-17.985,1.995C-17.985,1.995,-17.985,-5.995,-17.985,-5.995C-17.985,-5.995,17.985,-5.995,17.985,-5.995Z" /></g><g id="i19" transform="matrix(1,0,0,1,15.805,44.175)"><path fill="#18191a" d="M1.995,2C1.995,2,-1.995,2,-1.995,2C-1.995,2,-1.995,-2,-1.995,-2C-1.995,-2,1.995,-2,1.995,-2C1.995,-2,1.995,2,1.995,2Z" /></g><g id="i20" transform="matrix(1,0,0,1,85.762,79.974)"><path fill="#18191a" d="M-3.997,1.999C-3.997,1.999,0.001,1.999,0.001,1.999C0.001,1.999,3.997,1.999,3.997,1.999C3.997,1.999,3.997,-1.999,3.997,-1.999C3.997,-1.999,0.001,-1.999,0.001,-1.999C0.001,-1.999,-3.997,-1.999,-3.997,-1.999C-3.997,-1.999,-3.997,1.999,-3.997,1.999Z" /></g><g id="i21" transform="matrix(1,0,0,1,97.755,61.984)"><path fill="#18191a" d="M7.995,-15.99C7.995,-15.99,3.998,-15.99,3.998,-15.99C3.998,-15.99,0,-15.99,0,-15.99C0,-15.99,-3.998,-15.99,-3.998,-15.99C-3.998,-15.99,-7.995,-15.99,-7.995,-15.99C-7.995,-15.99,-11.992,-15.99,-11.992,-15.99C-11.992,-15.99,-15.99,-15.99,-15.99,-15.99C-15.99,-15.99,-15.99,-11.992,-15.99,-11.992C-15.99,-11.992,-15.99,-7.995,-15.99,-7.995C-15.99,-7.995,-15.99,-3.998,-15.99,-3.998C-15.99,-3.998,-11.992,-3.998,-11.992,-3.998C-11.992,-3.998,-11.992,-7.995,-11.992,-7.995C-11.992,-7.995,-7.995,-7.995,-7.995,-7.995C-7.995,-7.995,-7.995,-3.998,-7.995,-3.998C-7.995,-3.998,-11.992,-3.998,-11.992,-3.998C-11.992,-3.998,-11.992,0.001,-11.992,0.001C-11.992,0.001,-11.992,3.998,-11.992,3.998C-11.992,3.998,-11.992,7.995,-11.992,7.995C-11.992,7.995,-11.992,11.992,-11.992,11.992C-11.992,11.992,-7.995,11.992,-7.995,11.992C-7.995,11.992,-3.998,11.992,-3.998,11.992C-3.998,11.992,-3.998,15.99,-3.998,15.99C-3.998,15.99,0,15.99,0,15.99C0,15.99,3.998,15.99,3.998,15.99C3.998,15.99,3.998,11.992,3.998,11.992C3.998,11.992,7.995,11.992,7.995,11.992C7.995,11.992,7.995,7.995,7.995,7.995C7.995,7.995,7.995,3.998,7.995,3.998C7.995,3.998,7.995,0.001,7.995,0.001C7.995,0.001,11.992,0.001,11.992,0.001C11.992,0.001,15.99,0.001,15.99,0.001C15.99,0.001,15.99,-3.998,15.99,-3.998C15.99,-3.998,11.992,-3.998,11.992,-3.998C11.992,-3.998,7.995,-3.998,7.995,-3.998C7.995,-3.998,3.998,-3.998,3.998,-3.998C3.998,-3.998,0,-3.998,0,-3.998C0,-3.998,0,0.001,0,0.001C0,0.001,3.998,0.001,3.998,0.001C3.998,0.001,3.998,3.998,3.998,3.998C3.998,3.998,3.998,7.995,3.998,7.995C3.998,7.995,0,7.995,0,7.995C0,7.995,-3.998,7.995,-3.998,7.995C-3.998,7.995,-7.995,7.995,-7.995,7.995C-7.995,7.995,-7.995,3.998,-7.995,3.998C-7.995,3.998,-3.998,3.998,-3.998,3.998C-3.998,3.998,-3.998,0.001,-3.998,0.001C-3.998,0.001,-3.998,-3.998,-3.998,-3.998C-3.998,-3.998,-3.998,-7.995,-3.998,-7.995C-3.998,-7.995,-3.998,-11.992,-3.998,-11.992C-3.998,-11.992,0,-11.992,0,-11.992C0,-11.992,3.998,-11.992,3.998,-11.992C3.998,-11.992,7.995,-11.992,7.995,-11.992C7.995,-11.992,11.992,-11.992,11.992,-11.992C11.992,-11.992,15.99,-11.992,15.99,-11.992C15.99,-11.992,15.99,-15.99,15.99,-15.99C15.99,-15.99,11.992,-15.99,11.992,-15.99C11.992,-15.99,7.995,-15.99,7.995,-15.99Z" /></g><g id="i22" transform="matrix(1,0,0,1,91.858,44.513)"><path fill="#18191a" d="M1.999,-1.999C1.999,-1.999,-1.999,-1.999,-1.999,-1.999C-1.999,-1.999,-1.999,1.999,-1.999,1.999C-1.999,1.999,1.999,1.999,1.999,1.999C1.999,1.999,1.999,-1.999,1.999,-1.999Z" /></g><g id="i23" transform="matrix(1,0,0,1,103.851,44.513)"><path fill="#18191a" d="M1.999,-1.999C1.999,-1.999,-1.999,-1.999,-1.999,-1.999C-1.999,-1.999,-1.999,1.999,-1.999,1.999C-1.999,1.999,1.999,1.999,1.999,1.999C1.999,1.999,1.999,-1.999,1.999,-1.999Z" /></g><g id="i24" transform="matrix(1,0,0,1,111.846,44.614)"><path fill="#18191a" d="M-1.999,1.999C-1.999,1.999,1.999,1.999,1.999,1.999C1.999,1.999,1.999,-1.999,1.999,-1.999C1.999,-1.999,-1.999,-1.999,-1.999,-1.999C-1.999,-1.999,-1.999,1.999,-1.999,1.999Z" /></g><g id="i25" transform="matrix(1,0,0,1,105.75,89.969)"><path fill="#18191a" d="M3.997,-19.99C3.997,-19.99,3.997,-15.993,3.997,-15.993C3.997,-15.993,3.997,-11.995,3.997,-11.995C3.997,-11.995,0,-11.995,0,-11.995C0,-11.995,0,-7.995,0,-7.995C0,-7.995,-3.997,-7.995,-3.997,-7.995C-3.997,-7.995,-7.995,-7.995,-7.995,-7.995C-7.995,-7.995,-7.995,-3.999,-7.995,-3.999C-7.995,-3.999,-3.997,-3.999,-3.997,-3.999C-3.997,-3.999,-3.997,-0.002,-3.997,-0.002C-3.997,-0.002,0,-0.002,0,-0.002C0,-0.002,0,3.996,0,3.996C0,3.996,-3.997,3.996,-3.997,3.996C-3.997,3.996,-3.997,7.993,-3.997,7.993C-3.997,7.993,0,7.993,0,7.993C0,7.993,0,11.99,0,11.99C0,11.99,-3.997,11.99,-3.997,11.99C-3.997,11.99,-3.997,15.99,-3.997,15.99C-3.997,15.99,-3.997,19.988,-3.997,19.988C-3.997,19.988,0,19.988,0,19.988C0,19.988,0,23.986,0,23.986C0,23.986,3.997,23.986,3.997,23.986C3.997,23.986,7.995,23.986,7.995,23.986C7.995,23.986,7.995,19.988,7.995,19.988C7.995,19.988,3.997,19.988,3.997,19.988C3.997,19.988,3.997,15.99,3.997,15.99C3.997,15.99,3.997,11.99,3.997,11.99C3.997,11.99,3.997,7.993,3.997,7.993C3.997,7.993,3.997,3.996,3.997,3.996C3.997,3.996,3.997,-0.002,3.997,-0.002C3.997,-0.002,3.997,-3.999,3.997,-3.999C3.997,-3.999,3.997,-7.995,3.997,-7.995C3.997,-7.995,7.995,-7.995,7.995,-7.995C7.995,-7.995,7.995,-11.995,7.995,-11.995C7.995,-11.995,7.995,-15.993,7.995,-15.993C7.995,-15.993,7.995,-19.99,7.995,-19.99C7.995,-19.99,7.995,-23.987,7.995,-23.987C7.995,-23.987,3.997,-23.987,3.997,-23.987C3.997,-23.987,3.997,-19.99,3.997,-19.99Z" /></g><g id="i26" transform="matrix(1,0,0,1,47.785,69.98)"><path fill="#18191a" d="M25.983,23.986C25.983,23.986,29.982,23.986,29.982,23.986C29.982,23.986,29.982,19.988,29.982,19.988C29.982,19.988,29.982,15.991,29.982,15.991C29.982,15.991,29.982,11.994,29.982,11.994C29.982,11.994,29.982,7.995,29.982,7.995C29.982,7.995,29.982,3.997,29.982,3.997C29.982,3.997,33.98,3.997,33.98,3.997C33.98,3.997,33.98,0,33.98,0C33.98,0,33.98,-3.997,33.98,-3.997C33.98,-3.997,33.98,-7.994,33.98,-7.994C33.98,-7.994,29.982,-7.994,29.982,-7.994C29.982,-7.994,29.982,-3.997,29.982,-3.997C29.982,-3.997,25.983,-3.997,25.983,-3.997C25.983,-3.997,25.983,-7.994,25.983,-7.994C25.983,-7.994,29.982,-7.994,29.982,-7.994C29.982,-7.994,29.982,-11.993,29.982,-11.993C29.982,-11.993,29.982,-15.991,29.982,-15.991C29.982,-15.991,29.982,-19.988,29.982,-19.988C29.982,-19.988,25.983,-19.988,25.983,-19.988C25.983,-19.988,21.987,-19.988,21.987,-19.988C21.987,-19.988,21.987,-23.986,21.987,-23.986C21.987,-23.986,17.989,-23.986,17.989,-23.986C17.989,-23.986,17.989,-19.988,17.989,-19.988C17.989,-19.988,17.989,-15.991,17.989,-15.991C17.989,-15.991,17.989,-11.993,17.989,-11.993C17.989,-11.993,13.992,-11.993,13.992,-11.993C13.992,-11.993,13.992,-7.994,13.992,-7.994C13.992,-7.994,9.994,-7.994,9.994,-7.994C9.994,-7.994,5.997,-7.994,5.997,-7.994C5.997,-7.994,1.999,-7.994,1.999,-7.994C1.999,-7.994,-1.998,-7.994,-1.998,-7.994C-1.998,-7.994,-5.996,-7.994,-5.996,-7.994C-5.996,-7.994,-9.995,-7.994,-9.995,-7.994C-9.995,-7.994,-13.992,-7.994,-13.992,-7.994C-13.992,-7.994,-13.992,-11.993,-13.992,-11.993C-13.992,-11.993,-17.99,-11.993,-17.99,-11.993C-17.99,-11.993,-21.987,-11.993,-21.987,-11.993C-21.987,-11.993,-21.987,-15.991,-21.987,-15.991C-21.987,-15.991,-25.985,-15.991,-25.985,-15.991C-25.985,-15.991,-29.983,-15.991,-29.983,-15.991C-29.983,-15.991,-29.983,-11.993,-29.983,-11.993C-29.983,-11.993,-33.98,-11.993,-33.98,-11.993C-33.98,-11.993,-33.98,-7.994,-33.98,-7.994C-33.98,-7.994,-33.98,-3.997,-33.98,-3.997C-33.98,-3.997,-29.983,-3.997,-29.983,-3.997C-29.983,-3.997,-29.983,-7.994,-29.983,-7.994C-29.983,-7.994,-25.985,-7.994,-25.985,-7.994C-25.985,-7.994,-21.987,-7.994,-21.987,-7.994C-21.987,-7.994,-21.987,-3.997,-21.987,-3.997C-21.987,-3.997,-17.99,-3.997,-17.99,-3.997C-17.99,-3.997,-17.99,0,-17.99,0C-17.99,0,-17.99,3.997,-17.99,3.997C-17.99,3.997,-13.992,3.997,-13.992,3.997C-13.992,3.997,-13.992,0,-13.992,0C-13.992,0,-9.995,0,-9.995,0C-9.995,0,-9.995,-3.997,-9.995,-3.997C-9.995,-3.997,-5.996,-3.997,-5.996,-3.997C-5.996,-3.997,-1.998,-3.997,-1.998,-3.997C-1.998,-3.997,-1.998,0,-1.998,0C-1.998,0,1.999,0,1.999,0C1.999,0,1.999,-3.997,1.999,-3.997C1.999,-3.997,5.997,-3.997,5.997,-3.997C5.997,-3.997,5.997,0,5.997,0C5.997,0,9.994,0,9.994,0C9.994,0,9.994,-3.997,9.994,-3.997C9.994,-3.997,13.992,-3.997,13.992,-3.997C13.992,-3.997,17.989,-3.997,17.989,-3.997C17.989,-3.997,21.986,-3.997,21.986,-3.997C21.986,-3.997,21.986,0,21.986,0C21.986,0,21.986,3.997,21.986,3.997C21.986,3.997,25.983,3.997,25.983,3.997C25.983,3.997,25.983,7.995,25.983,7.995C25.983,7.995,25.983,11.994,25.983,11.994C25.983,11.994,21.986,11.994,21.986,11.994C21.986,11.994,21.986,7.995,21.986,7.995C21.986,7.995,17.989,7.995,17.989,7.995C17.989,7.995,13.992,7.995,13.992,7.995C13.992,7.995,13.992,11.994,13.992,11.994C13.992,11.994,9.994,11.994,9.994,11.994C9.994,11.994,9.994,15.991,9.994,15.991C9.994,15.991,13.992,15.991,13.992,15.991C13.992,15.991,17.989,15.991,17.989,15.991C17.989,15.991,21.986,15.991,21.986,15.991C21.986,15.991,21.986,19.988,21.986,19.988C21.986,19.988,25.983,19.988,25.983,19.988C25.983,19.988,25.983,23.986,25.983,23.986Z" /></g><g id="i27" transform="matrix(1,0,0,1,95.756,79.974)"><path fill="#18191a" d="M1.999,-1.999C1.999,-1.999,-1.999,-1.999,-1.999,-1.999C-1.999,-1.999,-1.999,1.999,-1.999,1.999C-1.999,1.999,1.999,1.999,1.999,1.999C1.999,1.999,1.999,-1.999,1.999,-1.999Z" /></g><g id="i28" transform="matrix(1,0,0,1,79.765,99.963)"><path fill="#18191a" fill-rule="evenodd" d="M17.99,-2C17.99,-2,17.99,-5.997,17.99,-5.997C17.99,-5.997,17.99,-9.995,17.99,-9.995C17.99,-9.995,13.992,-9.995,13.992,-9.995C13.992,-9.995,13.992,-13.992,13.992,-13.992C13.992,-13.992,9.995,-13.992,9.995,-13.992C9.995,-13.992,5.997,-13.992,5.997,-13.992C5.997,-13.992,1.999,-13.992,1.999,-13.992C1.999,-13.992,1.999,-9.995,1.999,-9.995C1.999,-9.995,1.999,-5.997,1.999,-5.997C1.999,-5.997,-1.999,-5.997,-1.999,-5.997C-1.999,-5.997,-1.999,-2,-1.999,-2C-1.999,-2,1.999,-2,1.999,-2C1.999,-2,5.997,-2,5.997,-2C5.997,-2,5.997,1.997,5.997,1.997C5.997,1.997,5.997,5.996,5.997,5.996C5.997,5.996,1.999,5.996,1.999,5.996C1.999,5.996,1.999,1.997,1.999,1.997C1.999,1.997,-1.999,1.997,-1.999,1.997C-1.999,1.997,-1.999,5.996,-1.999,5.996C-1.999,5.996,-5.997,5.996,-5.997,5.996C-5.997,5.996,-5.997,1.997,-5.997,1.997C-5.997,1.997,-5.997,-2,-5.997,-2C-5.997,-2,-5.998,-2,-5.998,-2C-5.998,-2,-5.998,-5.997,-5.998,-5.997C-5.998,-5.997,-9.995,-5.997,-9.995,-5.997C-9.995,-5.997,-9.995,-9.995,-9.995,-9.995C-9.995,-9.995,-13.992,-9.995,-13.992,-9.995C-13.992,-9.995,-17.989,-9.995,-17.989,-9.995C-17.989,-9.995,-17.989,-5.997,-17.989,-5.997C-17.989,-5.997,-21.988,-5.997,-21.988,-5.997C-21.988,-5.997,-21.988,-2,-21.988,-2C-21.988,-2,-21.988,1.997,-21.988,1.997C-21.988,1.997,-17.989,1.997,-17.989,1.997C-17.989,1.997,-17.989,5.996,-17.989,5.996C-17.989,5.996,-17.989,9.993,-17.989,9.993C-17.989,9.993,-17.989,13.992,-17.989,13.992C-17.989,13.992,-13.992,13.992,-13.992,13.992C-13.992,13.992,-13.992,9.993,-13.992,9.993C-13.992,9.993,-13.992,5.996,-13.992,5.996C-13.992,5.996,-13.992,1.997,-13.992,1.997C-13.992,1.997,-13.992,-2,-13.992,-2C-13.992,-2,-9.996,-2,-9.996,-2C-9.996,-2,-9.996,1.997,-9.996,1.997C-9.996,1.997,-9.996,5.996,-9.996,5.996C-9.996,5.996,-5.998,5.996,-5.998,5.996C-5.998,5.996,-5.998,9.993,-5.998,9.993C-5.998,9.993,-9.996,9.993,-9.996,9.993C-9.996,9.993,-9.996,13.992,-9.996,13.992C-9.996,13.992,-5.997,13.992,-5.997,13.992C-5.997,13.992,-5.997,9.993,-5.997,9.993C-5.997,9.993,-1.999,9.993,-1.999,9.993C-1.999,9.993,-1.999,13.992,-1.999,13.992C-1.999,13.992,1.999,13.992,1.999,13.992C1.999,13.992,1.999,9.993,1.999,9.993C1.999,9.993,5.997,9.993,5.997,9.993C5.997,9.993,9.995,9.993,9.995,9.993C9.995,9.993,9.995,5.996,9.995,5.996C9.995,5.996,9.995,1.997,9.995,1.997C9.995,1.997,9.995,-2,9.995,-2C9.995,-2,13.992,-2,13.992,-2C13.992,-2,13.992,1.997,13.992,1.997C13.992,1.997,17.99,1.997,17.99,1.997C17.99,1.997,21.988,1.997,21.988,1.997C21.988,1.997,21.988,-2,21.988,-2C21.988,-2,17.99,-2,17.99,-2ZM9.995,-5.997C9.995,-5.997,5.997,-5.997,5.997,-5.997C5.997,-5.997,5.997,-9.995,5.997,-9.995C5.997,-9.995,9.995,-9.995,9.995,-9.995C9.995,-9.995,9.995,-5.997,9.995,-5.997Z" /></g><g id="i29" transform="matrix(1,0,0,1,49.783,99.963)"><path fill="#18191a" d="M-7.995,-9.995C-7.995,-9.995,-7.995,-5.997,-7.995,-5.997C-7.995,-5.997,-3.997,-5.997,-3.997,-5.997C-3.997,-5.997,-3.997,-2,-3.997,-2C-3.997,-2,-7.995,-2,-7.995,-2C-7.995,-2,-7.995,1.997,-7.995,1.997C-7.995,1.997,-7.995,5.996,-7.995,5.996C-7.995,5.996,-7.995,9.993,-7.995,9.993C-7.995,9.993,-7.995,13.992,-7.995,13.992C-7.995,13.992,-3.997,13.992,-3.997,13.992C-3.997,13.992,-3.997,9.993,-3.997,9.993C-3.997,9.993,-3.997,5.996,-3.997,5.996C-3.997,5.996,0,5.996,0,5.996C0,5.996,0,9.993,0,9.993C0,9.993,3.998,9.993,3.998,9.993C3.998,9.993,3.998,13.992,3.998,13.992C3.998,13.992,7.995,13.992,7.995,13.992C7.995,13.992,7.995,9.993,7.995,9.993C7.995,9.993,7.995,5.996,7.995,5.996C7.995,5.996,3.998,5.996,3.998,5.996C3.998,5.996,3.998,1.997,3.998,1.997C3.998,1.997,3.998,-2,3.998,-2C3.998,-2,3.998,-5.997,3.998,-5.997C3.998,-5.997,3.998,-9.995,3.998,-9.995C3.998,-9.995,3.998,-13.992,3.998,-13.992C3.998,-13.992,0,-13.992,0,-13.992C0,-13.992,-3.997,-13.992,-3.997,-13.992C-3.997,-13.992,-3.997,-9.995,-3.997,-9.995C-3.997,-9.995,-7.995,-9.995,-7.995,-9.995Z" /></g><g id="i30" transform="matrix(1,0,0,1,20.406,16.231)"><path stroke-linejoin="round" stroke-linecap="round" stroke-width="2" stroke="#18191a" d="M-15.406,11.231C-15.406,11.231,-15.406,1.654,-15.406,1.654C-15.406,-5.462,-9.637,-11.231,-2.521,-11.231C-2.521,-11.231,15.406,-11.231,15.406,-11.231" /></g><g id="i31" transform="matrix(1,0,0,1,20.895,112.591)"><path stroke-linejoin="round" stroke-linecap="round" stroke-width="2" stroke="#18191a" d="M15.895,11.39C15.895,11.39,-3.01,11.39,-3.01,11.39C-10.127,11.39,-15.895,5.621,-15.895,-1.495C-15.895,-1.495,-15.895,-11.39,-15.895,-11.39" /></g><g id="i32" transform="matrix(1,0,0,1,107.361,16.231)"><path stroke-linejoin="round" stroke-linecap="round" stroke-width="2" stroke="#18191a" d="M15.406,11.231C15.406,11.231,15.406,1.654,15.406,1.654C15.406,-5.462,9.637,-11.231,2.521,-11.231C2.521,-11.231,-15.406,-11.231,-15.406,-11.231" /></g><g id="i33" transform="matrix(1,0,0,1,106.873,112.591)"><path stroke-linejoin="round" stroke-linecap="round" stroke-width="2" stroke="#18191a" d="M-15.895,11.39C-15.895,11.39,3.01,11.39,3.01,11.39C10.127,11.39,15.895,5.621,15.895,-1.495C15.895,-1.495,15.895,-11.39,15.895,-11.39" /></g></g><g id="i34"><g transform="translate(249.884,342.865)"><animateTransform repeatCount="indefinite" type="translate" attributeName="transform" dur="2.533s" begin="0s" calcMode="spline" values="249.884 342.865; 249.884 73.865; 249.884 342.865; 249.884 342.865" keyTimes="0; 0.5; 0.986842; 1" keySplines="0.333 0 0.667 1; 0.333 0 0.667 1; 0 0 1 1" fill="freeze" /><g transform="scale(2.5,2.5) translate(-59.884,-17.295)"><g id="i32"><path stroke-miterlimit="10" stroke-width="2" stroke="#ff4343" d="M1,33.59C1,33.59,118.768,33.59,118.768,33.59" /></g><g opacity="0.45"><g transform="translate(59.884,33.019)"><g transform="scale(1,1)"><animateTransform repeatCount="indefinite" type="scale" attributeName="transform" dur="2.533s" begin="0s" calcMode="spline" values="1 1; 1 1; 1 1; 1 1" keyTimes="0; 0.5; 0.986842; 1" keySplines="0.333 0 0.667 1; 0.333 0 0.667 1; 0 0 1 1" fill="freeze" /><g id="i33" transform="translate(0,-16.6)"><g id="i33" fill="url(#i0)"><path d="M58.884,16.168C58.884,16.168,-58.884,16.168,-58.884,16.168C-58.884,16.168,-58.884,-16.168,-58.884,-16.168C-58.884,-16.168,58.884,-16.168,58.884,-16.168C58.884,-16.168,58.884,16.168,58.884,16.168ZM-58.884,16.168C-58.884,16.168,58.884,16.168,58.884,16.168C58.884,16.168,58.884,-16.169,58.884,-16.169C58.884,-16.169,-58.884,-16.169,-58.884,-16.169C-58.884,-16.169,-58.884,16.168,-58.884,16.168ZM-59.884,-42.239C-59.884,-42.239,59.884,-42.239,59.884,-42.239C59.884,-42.239,59.884,78.743,59.884,78.743C59.884,78.743,-59.884,78.743,-59.884,78.743C-59.884,78.743,-59.884,-42.239,-59.884,-42.239ZM-59.884,78.743C-59.884,78.743,59.884,78.743,59.884,78.743C59.884,78.743,59.884,-42.239,59.884,-42.239C59.884,-42.239,-59.884,-42.239,-59.884,-42.239C-59.884,-42.239,-59.884,78.743,-59.884,78.743Z" /></g><path d="M-58.884,16.168C-58.884,16.168,-58.884,-16.168,-58.884,-16.168C-58.884,-16.168,58.884,-16.168,58.884,-16.168C58.884,-16.168,58.884,16.168,58.884,16.168C58.884,16.168,-58.884,16.168,-58.884,16.168Z" fill="url(#i1)" /></g></g></g></g></g></g></g></svg>